<svg width="74" height="74" viewBox="0 0 74 74" fill="none" xmlns="http://www.w3.org/2000/svg">
<path d="M26 37H18.6667C17.6942 37 16.7616 37.3863 16.074 38.0739C15.3863 38.7615 15 39.6942 15 40.6666C15 41.6391 15.3863 42.5717 16.074 43.2594C16.7616 43.947 17.6942 44.3333 18.6667 44.3333H26C26.9725 44.3333 27.9051 43.947 28.5927 43.2594C29.2804 42.5717 29.6667 41.6391 29.6667 40.6666C29.6667 39.6942 29.2804 38.7615 28.5927 38.0739C27.9051 37.3863 26.9725 37 26 37ZM22.3333 29.6666H37C37.9725 29.6666 38.9051 29.2803 39.5927 28.5927C40.2804 27.9051 40.6667 26.9724 40.6667 26C40.6667 25.0275 40.2804 24.0949 39.5927 23.4072C38.9051 22.7196 37.9725 22.3333 37 22.3333H22.3333C21.3609 22.3333 20.4283 22.7196 19.7406 23.4072C19.053 24.0949 18.6667 25.0275 18.6667 26C18.6667 26.9724 19.053 27.9051 19.7406 28.5927C20.4283 29.2803 21.3609 29.6666 22.3333 29.6666ZM26 51.6666H18.6667C17.6942 51.6666 16.7616 52.0529 16.074 52.7406C15.3863 53.4282 15 54.3608 15 55.3333C15 56.3058 15.3863 57.2384 16.074 57.926C16.7616 58.6137 17.6942 59 18.6667 59H26C26.9725 59 27.9051 58.6137 28.5927 57.926C29.2804 57.2384 29.6667 56.3058 29.6667 55.3333C29.6667 54.3608 29.2804 53.4282 28.5927 52.7406C27.9051 52.0529 26.9725 51.6666 26 51.6666ZM70 37H59V3.99997C59.0026 3.35386 58.8344 2.71855 58.5124 2.15837C58.1905 1.59818 57.7262 1.13302 57.1667 0.809966C56.6093 0.488149 55.977 0.318726 55.3333 0.318726C54.6897 0.318726 54.0574 0.488149 53.5 0.809966L42.5 7.11663L31.5 0.809966C30.9426 0.488149 30.3103 0.318726 29.6667 0.318726C29.023 0.318726 28.3907 0.488149 27.8333 0.809966L16.8333 7.11663L5.83334 0.809966C5.27594 0.488149 4.64364 0.318726 4.00001 0.318726C3.35637 0.318726 2.72408 0.488149 2.16668 0.809966C1.60713 1.13302 1.14287 1.59818 0.820929 2.15837C0.498983 2.71855 0.330777 3.35386 0.333342 3.99997V62.6666C0.333342 65.584 1.49227 68.3819 3.55517 70.4448C5.61807 72.5077 8.41596 73.6666 11.3333 73.6666H62.6667C65.5841 73.6666 68.3819 72.5077 70.4448 70.4448C72.5077 68.3819 73.6667 65.584 73.6667 62.6666V40.6666C73.6667 39.6942 73.2804 38.7615 72.5927 38.0739C71.9051 37.3863 70.9725 37 70 37ZM11.3333 66.3333C10.3609 66.3333 9.42825 65.947 8.74062 65.2594C8.05298 64.5717 7.66667 63.6391 7.66667 62.6666V10.3433L15 14.5233C15.5659 14.8189 16.1949 14.9732 16.8333 14.9732C17.4718 14.9732 18.1008 14.8189 18.6667 14.5233L29.6667 8.21663L40.6667 14.5233C41.2326 14.8189 41.8616 14.9732 42.5 14.9732C43.1385 14.9732 43.7674 14.8189 44.3333 14.5233L51.6667 10.3433V62.6666C51.6766 63.9175 51.8998 65.1575 52.3267 66.3333H11.3333ZM66.3333 62.6666C66.3333 63.6391 65.947 64.5717 65.2594 65.2594C64.5718 65.947 63.6391 66.3333 62.6667 66.3333C61.6942 66.3333 60.7616 65.947 60.0739 65.2594C59.3863 64.5717 59 63.6391 59 62.6666V44.3333H66.3333V62.6666ZM42.72 52.29C42.5156 52.1512 42.2937 52.0402 42.06 51.96C41.8417 51.8483 41.6062 51.774 41.3633 51.74C40.7743 51.622 40.1652 51.6506 39.5898 51.8232C39.0144 51.9959 38.4902 52.3072 38.0633 52.73C37.3933 53.4326 37.0135 54.3625 37 55.3333C36.9942 55.81 37.0813 56.2833 37.2567 56.7266C37.456 57.1723 37.7287 57.5813 38.0633 57.9366C38.4197 58.2605 38.829 58.521 39.2733 58.7066C39.7122 58.9006 40.1868 59.0008 40.6667 59.0008C41.1465 59.0008 41.6211 58.9006 42.06 58.7066C42.5044 58.521 42.9136 58.2605 43.27 57.9366C43.6098 57.594 43.8787 57.1877 44.0612 56.741C44.2436 56.2942 44.3361 55.8159 44.3333 55.3333C44.3198 54.3625 43.94 53.4326 43.27 52.73C43.0958 52.5723 42.9121 52.4253 42.72 52.29V52.29ZM43.2333 38.0633C42.8052 37.6464 42.2816 37.3404 41.7082 37.172C41.1348 37.0036 40.5289 36.978 39.9433 37.0973C39.3577 37.2166 38.8102 37.4772 38.3483 37.8564C37.8864 38.2357 37.5243 38.7221 37.2933 39.2733C37.0651 39.8288 36.9768 40.4318 37.0363 41.0294C37.0957 41.627 37.301 42.2009 37.6341 42.7006C37.9672 43.2003 38.418 43.6105 38.9467 43.8952C39.4755 44.1799 40.0661 44.3303 40.6667 44.3333C41.6391 44.3333 42.5718 43.947 43.2594 43.2594C43.947 42.5717 44.3333 41.6391 44.3333 40.6666C44.3275 40.1875 44.2279 39.7141 44.04 39.2733C43.8634 38.8156 43.5879 38.4024 43.2333 38.0633V38.0633Z" fill="#C5A2FF"/>
</svg>
