<svg width="74" height="74" viewBox="0 0 74 74" fill="none" xmlns="http://www.w3.org/2000/svg">
<path d="M27.8333 31.5H36.9999C37.9724 31.5 38.905 31.1137 39.5927 30.426C40.2803 29.7384 40.6666 28.8058 40.6666 27.8333C40.6666 26.8608 40.2803 25.9282 39.5927 25.2406C38.905 24.5529 37.9724 24.1666 36.9999 24.1666H33.3333V22.3333C33.3333 21.3608 32.947 20.4282 32.2593 19.7406C31.5717 19.0529 30.6391 18.6666 29.6666 18.6666C28.6942 18.6666 27.7615 19.0529 27.0739 19.7406C26.3863 20.4282 25.9999 21.3608 25.9999 22.3333V24.35C23.7722 24.8023 21.7919 26.0663 20.4437 27.8966C19.0954 29.7269 18.4754 31.9928 18.7038 34.2545C18.9323 36.5163 19.993 38.6124 21.68 40.1361C23.367 41.6598 25.56 42.5023 27.8333 42.5H31.4999C31.9862 42.5 32.4525 42.6931 32.7963 43.0369C33.1401 43.3808 33.3333 43.8471 33.3333 44.3333C33.3333 44.8195 33.1401 45.2859 32.7963 45.6297C32.4525 45.9735 31.9862 46.1666 31.4999 46.1666H22.3333C21.3608 46.1666 20.4282 46.5529 19.7406 47.2406C19.0529 47.9282 18.6666 48.8608 18.6666 49.8333C18.6666 50.8058 19.0529 51.7384 19.7406 52.426C20.4282 53.1137 21.3608 53.5 22.3333 53.5H25.9999V55.3333C25.9999 56.3058 26.3863 57.2384 27.0739 57.926C27.7615 58.6137 28.6942 59 29.6666 59C30.6391 59 31.5717 58.6137 32.2593 57.926C32.947 57.2384 33.3333 56.3058 33.3333 55.3333V53.3166C35.5611 52.8643 37.5413 51.6003 38.8895 49.77C40.2378 47.9397 40.8579 45.6738 40.6294 43.4121C40.401 41.1503 39.3403 39.0542 37.6532 37.5305C35.9662 36.0068 33.7732 35.1644 31.4999 35.1666H27.8333C27.3471 35.1666 26.8807 34.9735 26.5369 34.6297C26.1931 34.2859 25.9999 33.8195 25.9999 33.3333C25.9999 32.8471 26.1931 32.3808 26.5369 32.0369C26.8807 31.6931 27.3471 31.5 27.8333 31.5ZM69.9999 37H58.9999V3.99997C59.0025 3.35386 58.8343 2.71855 58.5124 2.15837C58.1904 1.59818 57.7262 1.13302 57.1666 0.809966C56.6092 0.488149 55.9769 0.318726 55.3333 0.318726C54.6896 0.318726 54.0573 0.488149 53.4999 0.809966L42.4999 7.11663L31.4999 0.809966C30.9425 0.488149 30.3102 0.318726 29.6666 0.318726C29.023 0.318726 28.3907 0.488149 27.8333 0.809966L16.8333 7.11663L5.83328 0.809966C5.27588 0.488149 4.64358 0.318726 3.99995 0.318726C3.35631 0.318726 2.72402 0.488149 2.16661 0.809966C1.60706 1.13302 1.14281 1.59818 0.820868 2.15837C0.498922 2.71855 0.330716 3.35386 0.333281 3.99997V62.6666C0.333281 65.584 1.49221 68.3819 3.55511 70.4448C5.61801 72.5077 8.4159 73.6666 11.3333 73.6666H62.6666C65.584 73.6666 68.3819 72.5077 70.4448 70.4448C72.5077 68.3819 73.6666 65.584 73.6666 62.6666V40.6666C73.6666 39.6942 73.2803 38.7615 72.5927 38.0739C71.905 37.3863 70.9724 37 69.9999 37ZM11.3333 66.3333C10.3608 66.3333 9.42819 65.947 8.74056 65.2594C8.05292 64.5717 7.66661 63.6391 7.66661 62.6666V10.3433L14.9999 14.5233C15.5659 14.8189 16.1948 14.9732 16.8333 14.9732C17.4717 14.9732 18.1007 14.8189 18.6666 14.5233L29.6666 8.21663L40.6666 14.5233C41.2325 14.8189 41.8615 14.9732 42.4999 14.9732C43.1384 14.9732 43.7674 14.8189 44.3333 14.5233L51.6666 10.3433V62.6666C51.6765 63.9175 51.8997 65.1575 52.3266 66.3333H11.3333ZM66.3333 62.6666C66.3333 63.6391 65.947 64.5717 65.2593 65.2594C64.5717 65.947 63.6391 66.3333 62.6666 66.3333C61.6942 66.3333 60.7615 65.947 60.0739 65.2594C59.3862 64.5717 58.9999 63.6391 58.9999 62.6666V44.3333H66.3333V62.6666Z" fill="#C5A2FF"/>
</svg>
