<svg width="146" height="53" viewBox="0 0 146 53" fill="none" xmlns="http://www.w3.org/2000/svg">
<path d="M65.0264 0.635577C44.9242 -1.05131 24.2442 1.04662 12.75 2.00447L10.875 2.12946C10.8333 2.0878 11.3 2.70446 13.5 5.50446C11.9387 6.8282 10.3428 8.52541 8.84233 10.3106C3.91799 16.1695 0.0856844 23.2062 0.00315285 30.8593C0 31.1516 0 31.4083 0 31.625C-1.70915e-05 42.3705 1.38671 43.8602 4.25 48.0045H11C11.6 48.0045 11.8333 46.1295 11.875 45.7545V43.961C11.875 41.0793 11.9825 38.113 13.34 35.5711C15.1243 32.2297 18.5593 28.7545 24.375 28.7545C29.8201 28.7545 33.2833 31.8009 35.2616 34.9316C37.082 37.8123 37.25 41.349 37.25 44.7567V46.8795C37.25 47.5795 37.75 47.9211 38 48.0045H98.25C99.85 48.0045 100.167 46.6711 100.125 46.0045V39.8795C100.458 36.2961 103.45 29.1295 112.75 29.1295C122.05 29.1295 125.375 36.2961 125.5 39.8795C125.626 40.8841 125.688 41.5414 125.719 42.1857C125.789 43.6306 125.996 45.5935 125.973 47.0399C125.958 48.0019 126.513 48.0045 127.475 48.0045H141.5C142.167 47.5461 144.025 44.4545 144.625 43.7545C145.225 43.0545 145.042 42.6295 144.875 42.5045H143.375C142.175 40.4045 142.875 38.6295 143.375 38.0045H144.625C148.564 32.6335 139.094 26.3222 132.969 23.7041C125.378 20.4589 117.281 19.0501 105.25 17.2545C98.567 11.8063 88.1814 7.08377 80.3317 4.09297C75.4192 2.22129 70.2649 1.07517 65.0264 0.635577Z" fill="#AD7CFE"/>
<path d="M73.125 4.83915C54.025 0.602721 29.0833 3.07397 19 4.83915C11 10.6027 8 16.1043 7.5 18.1347H54.375H101.25C99.3333 16.0514 91.025 10.4756 73.125 4.83915Z" fill="#8D52ED"/>
<circle cx="113" cy="42" r="11.75" fill="#8D52ED"/>
<circle cx="24.5" cy="42" r="11.75" fill="#8D52ED"/>
<path d="M141.431 31.5242C141.609 33.4477 134.23 33.9483 132.421 34.1161C130.612 34.2838 129.001 32.8605 128.823 30.9371C128.645 29.0136 129.966 27.3184 131.775 27.1506C133.584 26.9828 141.253 29.6007 141.431 31.5242Z" fill="#C5A2FF"/>
</svg>
