<svg class="hidden">
  <symbol xmlns="http://www.w3.org/2000/svg"  id="arrow">
  <path d="M10.3804 1C12.7377 1 14.4656 1 15.7266 1C17.6596 1 18.7733 2.567 18.7733 4.5V4.5C18.7733 6.433 17.2086 8 15.2756 8C11.6558 8 5.86124 8 1 8M1 8L3.96222 5M1 8L3.96222 11" stroke="#47385F" stroke-width="2" stroke-linecap="round" stroke-linejoin="round" />
</symbol>;
    
  <symbol xmlns="http://www.w3.org/2000/svg" width='74' height='74' viewBox="0 0 74 74" id="business">
    <path d="M26 37H18.6667C17.6942 37 16.7616 37.3863 16.074 38.0739C15.3863 38.7615 15 39.6942 15 40.6666C15 41.6391 15.3863 42.5717 16.074 43.2594C16.7616 43.947 17.6942 44.3333 18.6667 44.3333H26C26.9725 44.3333 27.9051 43.947 28.5927 43.2594C29.2804 42.5717 29.6667 41.6391 29.6667 40.6666C29.6667 39.6942 29.2804 38.7615 28.5927 38.0739C27.9051 37.3863 26.9725 37 26 37ZM22.3333 29.6666H37C37.9725 29.6666 38.9051 29.2803 39.5927 28.5927C40.2804 27.9051 40.6667 26.9724 40.6667 26C40.6667 25.0275 40.2804 24.0949 39.5927 23.4072C38.9051 22.7196 37.9725 22.3333 37 22.3333H22.3333C21.3609 22.3333 20.4283 22.7196 19.7406 23.4072C19.053 24.0949 18.6667 25.0275 18.6667 26C18.6667 26.9724 19.053 27.9051 19.7406 28.5927C20.4283 29.2803 21.3609 29.6666 22.3333 29.6666ZM26 51.6666H18.6667C17.6942 51.6666 16.7616 52.0529 16.074 52.7406C15.3863 53.4282 15 54.3608 15 55.3333C15 56.3058 15.3863 57.2384 16.074 57.926C16.7616 58.6137 17.6942 59 18.6667 59H26C26.9725 59 27.9051 58.6137 28.5927 57.926C29.2804 57.2384 29.6667 56.3058 29.6667 55.3333C29.6667 54.3608 29.2804 53.4282 28.5927 52.7406C27.9051 52.0529 26.9725 51.6666 26 51.6666ZM70 37H59V3.99997C59.0026 3.35386 58.8344 2.71855 58.5124 2.15837C58.1905 1.59818 57.7262 1.13302 57.1667 0.809966C56.6093 0.488149 55.977 0.318726 55.3333 0.318726C54.6897 0.318726 54.0574 0.488149 53.5 0.809966L42.5 7.11663L31.5 0.809966C30.9426 0.488149 30.3103 0.318726 29.6667 0.318726C29.023 0.318726 28.3907 0.488149 27.8333 0.809966L16.8333 7.11663L5.83334 0.809966C5.27594 0.488149 4.64364 0.318726 4.00001 0.318726C3.35637 0.318726 2.72408 0.488149 2.16668 0.809966C1.60713 1.13302 1.14287 1.59818 0.820929 2.15837C0.498983 2.71855 0.330777 3.35386 0.333342 3.99997V62.6666C0.333342 65.584 1.49227 68.3819 3.55517 70.4448C5.61807 72.5077 8.41596 73.6666 11.3333 73.6666H62.6667C65.5841 73.6666 68.3819 72.5077 70.4448 70.4448C72.5077 68.3819 73.6667 65.584 73.6667 62.6666V40.6666C73.6667 39.6942 73.2804 38.7615 72.5927 38.0739C71.9051 37.3863 70.9725 37 70 37ZM11.3333 66.3333C10.3609 66.3333 9.42825 65.947 8.74062 65.2594C8.05298 64.5717 7.66667 63.6391 7.66667 62.6666V10.3433L15 14.5233C15.5659 14.8189 16.1949 14.9732 16.8333 14.9732C17.4718 14.9732 18.1008 14.8189 18.6667 14.5233L29.6667 8.21663L40.6667 14.5233C41.2326 14.8189 41.8616 14.9732 42.5 14.9732C43.1385 14.9732 43.7674 14.8189 44.3333 14.5233L51.6667 10.3433V62.6666C51.6766 63.9175 51.8998 65.1575 52.3267 66.3333H11.3333ZM66.3333 62.6666C66.3333 63.6391 65.947 64.5717 65.2594 65.2594C64.5718 65.947 63.6391 66.3333 62.6667 66.3333C61.6942 66.3333 60.7616 65.947 60.0739 65.2594C59.3863 64.5717 59 63.6391 59 62.6666V44.3333H66.3333V62.6666ZM42.72 52.29C42.5156 52.1512 42.2937 52.0402 42.06 51.96C41.8417 51.8483 41.6062 51.774 41.3633 51.74C40.7743 51.622 40.1652 51.6506 39.5898 51.8232C39.0144 51.9959 38.4902 52.3072 38.0633 52.73C37.3933 53.4326 37.0135 54.3625 37 55.3333C36.9942 55.81 37.0813 56.2833 37.2567 56.7266C37.456 57.1723 37.7287 57.5813 38.0633 57.9366C38.4197 58.2605 38.829 58.521 39.2733 58.7066C39.7122 58.9006 40.1868 59.0008 40.6667 59.0008C41.1465 59.0008 41.6211 58.9006 42.06 58.7066C42.5044 58.521 42.9136 58.2605 43.27 57.9366C43.6098 57.594 43.8787 57.1877 44.0612 56.741C44.2436 56.2942 44.3361 55.8159 44.3333 55.3333C44.3198 54.3625 43.94 53.4326 43.27 52.73C43.0958 52.5723 42.9121 52.4253 42.72 52.29V52.29ZM43.2333 38.0633C42.8052 37.6464 42.2816 37.3404 41.7082 37.172C41.1348 37.0036 40.5289 36.978 39.9433 37.0973C39.3577 37.2166 38.8102 37.4772 38.3483 37.8564C37.8864 38.2357 37.5243 38.7221 37.2933 39.2733C37.0651 39.8288 36.9768 40.4318 37.0363 41.0294C37.0957 41.627 37.301 42.2009 37.6341 42.7006C37.9672 43.2003 38.418 43.6105 38.9467 43.8952C39.4755 44.1799 40.0661 44.3303 40.6667 44.3333C41.6391 44.3333 42.5718 43.947 43.2594 43.2594C43.947 42.5717 44.3333 41.6391 44.3333 40.6666C44.3275 40.1875 44.2279 39.7141 44.04 39.2733C43.8634 38.8156 43.5879 38.4024 43.2333 38.0633V38.0633Z"  ></path>
  </symbol>
  <symbol xmlns="http://www.w3.org/2000/svg" width="107" height="62" viewBox="0 0 107 62" id="car">
    <g filter="url(#filter0_d_293_92)">
      <path d="M15.9983 16.7299L23.528 3.73897C24.8694 1.42468 27.3419 0 30.0168 0L77.9112 0C80.7547 0 83.3536 1.60807 84.6227 4.15266L90.7907 16.5197C91.4052 17.7519 92.6104 18.5814 93.9808 18.7154L98.7545 19.1823C100.645 19.3672 102.145 20.8564 102.343 22.7456L102.575 24.9546C102.802 27.117 101.107 29 98.9324 29C96.9094 29 95.2695 30.6399 95.2695 32.6629V51.75V58.5C95.2695 60.7091 93.4787 62.5 91.2695 62.5H82.9329C81.3451 62.5 80.0579 61.2128 80.0579 59.625C80.0579 58.0372 78.7708 56.75 77.1829 56.75L28.5702 56.75C26.9824 56.75 25.6952 58.0372 25.6952 59.625C25.6952 61.2128 24.408 62.5 22.8202 62.5H15.2317C13.0226 62.5 11.2317 60.7091 11.2317 58.5L11.2317 32.4266C11.2317 30.5341 9.69761 29 7.80518 29C5.77119 29 4.18495 27.2385 4.39735 25.2156L4.65754 22.7376C4.85553 20.852 6.35012 19.3644 8.23666 19.1753L12.9366 18.7041C14.215 18.5759 15.354 17.8415 15.9983 16.7299Z" ></path>
    </g>
    <path d="M34 30.995C34 33.7546 22.7614 33.4934 20 33.4934C17.2386 33.4934 15 31.2563 15 28.4967C15 25.7371 17.2386 23.5 20 23.5C22.7614 23.5 34 28.2354 34 30.995Z" fill="#C5A2FF"/>
    <path d="M73 30.995C73 33.7546 84.2386 33.4934 87 33.4934C89.7614 33.4934 92 31.2563 92 28.4967C92 25.7371 89.7614 23.5 87 23.5C84.2386 23.5 73 28.2354 73 30.995Z" fill="#C5A2FF"/>
    <path d="M19.5707 42.005C19.817 40.2808 21.2938 39 23.0355 39L83.9645 39C85.7062 39 87.183 40.2808 87.4293 42.005L88.4293 49.005C88.7305 51.1136 87.0944 53 84.9645 53L22.0355 53C19.9056 53 18.2695 51.1135 18.5707 49.005L19.5707 42.005Z" fill="#8D52ED"/>
    <path d="M27.1048 6.14288L21.6827 18.3929C21.2437 19.3846 21.9698 20.5 23.0543 20.5L83.411 20.5C84.5043 20.5 85.2303 19.3679 84.7742 18.3742L79.1513 6.12425C78.9067 5.59149 78.3743 5.25 77.7881 5.25L28.4764 5.25C27.8828 5.25 27.3451 5.60006 27.1048 6.14288Z" fill="#8D52ED"/>
    <defs>
      <filter id="filter0_d_293_92" x="0.378418" y="0" width="106.217" height="70.5" filterUnits="userSpaceOnUse" color-interpolation-filters="sRGB">
        <feFlood flood-opacity="0" result="BackgroundImageFix"></feFlood>
        <feColorMatrix in="SourceAlpha" type="matrix" values="0 0 0 0 0 0 0 0 0 0 0 0 0 0 0 0 0 0 127 0" result="hardAlpha"></feColorMatrix>
        <feOffset dy="4"></feOffset>
        <feGaussianBlur stdDeviation="2"></feGaussianBlur>
        <feComposite in2="hardAlpha" operator="out"></feComposite>
        <feColorMatrix type="matrix" values="0 0 0 0 0 0 0 0 0 0 0 0 0 0 0 0 0 0 0.25 0"></feColorMatrix>
        <feBlend mode="normal" in2="BackgroundImageFix" result="effect1_dropShadow_293_92"></feBlend>
        <feBlend mode="normal" in="SourceGraphic" in2="effect1_dropShadow_293_92" result="shape"></feBlend>
      </filter>
    </defs>
  </symbol>
  <symbol fill='none' xmlns="http://www.w3.org/2000/svg" width="76" height="75" viewBox="0 0 76 75" id="dandruff">
    <path d="M56.2118 22.9629C62.3647 29.7002 57.6489 34.8975 57.6489 34.8975" stroke="#C5A2FF" stroke-width="4" stroke-linecap="round" stroke-linejoin="round"/>
    <path d="M6 69C6 69 13.1359 61.9182 27.1716 47.8556M27.1716 47.8556C36.8386 58.051 53.4451 58.051 63.1122 47.8556C72.2959 38.17 72.2959 23.3321 63.1122 13.6465C53.4451 3.45115 36.8386 3.45115 27.1716 13.6465C17.9878 23.3321 17.9878 38.17 27.1716 47.8556Z" stroke="#C5A2FF" stroke-width="11" stroke-linecap="round"/>
  </symbol>
  <symbol xmlns="http://www.w3.org/2000/svg" viewBox="0 0 99 62" id="darkCar">
    <path d="M11.9983 16.7299L19.528 3.73897C20.8694 1.42468 23.3419 0 26.0168 0L73.9112 0C76.7547 0 79.3536 1.60807 80.6227 4.15266L86.7907 16.5197C87.4052 17.7519 88.6104 18.5814 89.9808 18.7154L94.7545 19.1823C96.6452 19.3672 98.1449 20.8564 98.3433 22.7456L98.5752 24.9546C98.8023 27.117 97.1067 29 94.9324 29C92.9094 29 91.2695 30.6399 91.2695 32.6629V51.75V58.5C91.2695 60.7091 89.4787 62.5 87.2695 62.5H78.9329C77.3451 62.5 76.0579 61.2128 76.0579 59.625C76.0579 58.0372 74.7708 56.75 73.1829 56.75L24.5702 56.75C22.9824 56.75 21.6952 58.0372 21.6952 59.625C21.6952 61.2128 20.408 62.5 18.8202 62.5H11.2317C9.0226 62.5 7.23174 60.7091 7.23174 58.5L7.23174 32.4266C7.23174 30.5341 5.69761 29 3.80518 29C1.77119 29 0.184954 27.2385 0.397352 25.2156L0.657538 22.7376C0.855525 20.852 2.35012 19.3644 4.23666 19.1753L8.93657 18.7041C10.215 18.5759 11.354 17.8415 11.9983 16.7299Z" fill="#8D52ED"></path>
    <path d="M30 30.995C30 33.7546 18.7614 33.4934 16 33.4934C13.2386 33.4934 11 31.2563 11 28.4967C11 25.7371 13.2386 23.5 16 23.5C18.7614 23.5 30 28.2354 30 30.995Z" fill="#C5A2FF"></path>
    <path d="M69 30.995C69 33.7546 80.2386 33.4934 83 33.4934C85.7614 33.4934 88 31.2563 88 28.4967C88 25.7371 85.7614 23.5 83 23.5C80.2386 23.5 69 28.2354 69 30.995Z" fill="#C5A2FF"></path>
    <path d="M15.5707 42.005C15.817 40.2808 17.2938 39 19.0355 39L79.9645 39C81.7062 39 83.183 40.2808 83.4293 42.005L84.4293 49.005C84.7305 51.1136 83.0944 53 80.9645 53L18.0355 53C15.9056 53 14.2695 51.1135 14.5707 49.005L15.5707 42.005Z" fill="#AD7CFE"></path>
    <path d="M23.1048 6.14288L17.6827 18.3929C17.2437 19.3846 17.9698 20.5 19.0543 20.5L79.411 20.5C80.5043 20.5 81.2303 19.3679 80.7742 18.3742L75.1513 6.12425C74.9067 5.59149 74.3743 5.25 73.7881 5.25L24.4764 5.25C23.8828 5.25 23.3451 5.60006 23.1048 6.14288Z" fill="#AD7CFE"></path>
  </symbol>
  <symbol xmlns="http://www.w3.org/2000/svg" viewBox="0 0 24 24" id="date">
    <path fill-rule="evenodd" clip-rule="evenodd" d="M12.8561 1.89567H5.29611V1.26C5.29611 0.912245 5.01387 0.630005 4.66611 0.630005C4.31835 0.630005 4.03611 0.912245 4.03611 1.26V1.89567C3.20073 1.89567 2.39937 2.22768 1.80843 2.81799C1.21812 3.40893 0.886108 4.21029 0.886108 5.04567C0.886108 7.84224 0.886108 12.3291 0.886108 15.1257C0.886108 15.9611 1.21812 16.7624 1.80843 17.3527C2.39937 17.9437 3.20073 18.2757 4.03611 18.2757C6.83268 18.2757 11.3195 18.2757 14.1161 18.2757C14.9515 18.2757 15.7528 17.9437 16.3438 17.3527C16.9341 16.7624 17.2661 15.9611 17.2661 15.1257V5.04567C17.2661 4.21029 16.9341 3.40893 16.3438 2.81799C15.7528 2.22768 14.9515 1.89567 14.1161 1.89567V1.26C14.1161 0.912245 13.8339 0.630005 13.4861 0.630005C13.1383 0.630005 12.8561 0.912245 12.8561 1.26V1.89567ZM16.0061 6.93001V15.1257C16.0061 15.6272 15.807 16.1078 15.4523 16.4619C15.0983 16.8166 14.6176 17.0157 14.1161 17.0157H4.03611C3.53463 17.0157 3.05394 16.8166 2.69988 16.4619C2.34519 16.1078 2.14611 15.6272 2.14611 15.1257V6.93001H16.0061ZM5.29611 3.15567V3.78C5.29611 4.12776 5.01387 4.41 4.66611 4.41C4.31835 4.41 4.03611 4.12776 4.03611 3.78V3.15567C3.53463 3.15567 3.05394 3.35475 2.69988 3.70944C2.34519 4.0635 2.14611 4.54419 2.14611 5.04567V5.67H16.0061V5.04567C16.0061 4.54419 15.807 4.0635 15.4523 3.70944C15.0983 3.35475 14.6176 3.15567 14.1161 3.15567V3.78C14.1161 4.12776 13.8339 4.41 13.4861 4.41C13.1383 4.41 12.8561 4.12776 12.8561 3.78V3.15567H5.29611Z" fill="#AD7CFE"></path>
    <path fill-rule="evenodd" clip-rule="evenodd" d="M4.6661 10.08H5.9261C6.27386 10.08 6.5561 9.79777 6.5561 9.45001C6.5561 9.10225 6.27386 8.82001 5.9261 8.82001H4.6661C4.31834 8.82001 4.0361 9.10225 4.0361 9.45001C4.0361 9.79777 4.31834 10.08 4.6661 10.08Z" fill="#AD7CFE"></path>
    <path fill-rule="evenodd" clip-rule="evenodd" d="M4.6661 12.6H5.9261C6.27386 12.6 6.5561 12.3178 6.5561 11.97C6.5561 11.6222 6.27386 11.34 5.9261 11.34H4.6661C4.31834 11.34 4.0361 11.6222 4.0361 11.97C4.0361 12.3178 4.31834 12.6 4.6661 12.6Z" fill="#AD7CFE"></path>
    <path fill-rule="evenodd" clip-rule="evenodd" d="M4.6661 15.12H5.9261C6.27386 15.12 6.5561 14.8378 6.5561 14.49C6.5561 14.1422 6.27386 13.86 5.9261 13.86H4.6661C4.31834 13.86 4.0361 14.1422 4.0361 14.49C4.0361 14.8378 4.31834 15.12 4.6661 15.12Z" fill="#AD7CFE"></path>
    <path fill-rule="evenodd" clip-rule="evenodd" d="M8.4461 10.08H9.7061C10.0539 10.08 10.3361 9.79777 10.3361 9.45001C10.3361 9.10225 10.0539 8.82001 9.7061 8.82001H8.4461C8.09834 8.82001 7.8161 9.10225 7.8161 9.45001C7.8161 9.79777 8.09834 10.08 8.4461 10.08Z" fill="#AD7CFE"></path>
    <path fill-rule="evenodd" clip-rule="evenodd" d="M8.4461 12.6H9.7061C10.0539 12.6 10.3361 12.3178 10.3361 11.97C10.3361 11.6222 10.0539 11.34 9.7061 11.34H8.4461C8.09834 11.34 7.8161 11.6222 7.8161 11.97C7.8161 12.3178 8.09834 12.6 8.4461 12.6Z" fill="#AD7CFE"></path>
    <path fill-rule="evenodd" clip-rule="evenodd" d="M12.2261 12.6H13.4861C13.8339 12.6 14.1161 12.3178 14.1161 11.97C14.1161 11.6222 13.8339 11.34 13.4861 11.34H12.2261C11.8783 11.34 11.5961 11.6222 11.5961 11.97C11.5961 12.3178 11.8783 12.6 12.2261 12.6Z" fill="#AD7CFE"></path>
    <path fill-rule="evenodd" clip-rule="evenodd" d="M8.4461 15.12H9.7061C10.0539 15.12 10.3361 14.8378 10.3361 14.49C10.3361 14.1422 10.0539 13.86 9.7061 13.86H8.4461C8.09834 13.86 7.8161 14.1422 7.8161 14.49C7.8161 14.8378 8.09834 15.12 8.4461 15.12Z" fill="#AD7CFE"></path>
    <path fill-rule="evenodd" clip-rule="evenodd" d="M12.2261 15.12H13.4861C13.8339 15.12 14.1161 14.8378 14.1161 14.49C14.1161 14.1422 13.8339 13.86 13.4861 13.86H12.2261C11.8783 13.86 11.5961 14.1422 11.5961 14.49C11.5961 14.8378 11.8783 15.12 12.2261 15.12Z" fill="#AD7CFE"></path>
    <path fill-rule="evenodd" clip-rule="evenodd" d="M12.2261 10.08H13.4861C13.8339 10.08 14.1161 9.79777 14.1161 9.45001C14.1161 9.10225 13.8339 8.82001 13.4861 8.82001H12.2261C11.8783 8.82001 11.5961 9.10225 11.5961 9.45001C11.5961 9.79777 11.8783 10.08 12.2261 10.08Z" fill="#AD7CFE"></path>
  </symbol>
  <symbol xmlns="http://www.w3.org/2000/svg" width="74" height="74" viewBox="0 0 74 74" id="dollar">
    <path d="M27.8333 31.5H36.9999C37.9724 31.5 38.905 31.1137 39.5927 30.426C40.2803 29.7384 40.6666 28.8058 40.6666 27.8333C40.6666 26.8608 40.2803 25.9282 39.5927 25.2406C38.905 24.5529 37.9724 24.1666 36.9999 24.1666H33.3333V22.3333C33.3333 21.3608 32.947 20.4282 32.2593 19.7406C31.5717 19.0529 30.6391 18.6666 29.6666 18.6666C28.6942 18.6666 27.7615 19.0529 27.0739 19.7406C26.3863 20.4282 25.9999 21.3608 25.9999 22.3333V24.35C23.7722 24.8023 21.7919 26.0663 20.4437 27.8966C19.0954 29.7269 18.4754 31.9928 18.7038 34.2545C18.9323 36.5163 19.993 38.6124 21.68 40.1361C23.367 41.6598 25.56 42.5023 27.8333 42.5H31.4999C31.9862 42.5 32.4525 42.6931 32.7963 43.0369C33.1401 43.3808 33.3333 43.8471 33.3333 44.3333C33.3333 44.8195 33.1401 45.2859 32.7963 45.6297C32.4525 45.9735 31.9862 46.1666 31.4999 46.1666H22.3333C21.3608 46.1666 20.4282 46.5529 19.7406 47.2406C19.0529 47.9282 18.6666 48.8608 18.6666 49.8333C18.6666 50.8058 19.0529 51.7384 19.7406 52.426C20.4282 53.1137 21.3608 53.5 22.3333 53.5H25.9999V55.3333C25.9999 56.3058 26.3863 57.2384 27.0739 57.926C27.7615 58.6137 28.6942 59 29.6666 59C30.6391 59 31.5717 58.6137 32.2593 57.926C32.947 57.2384 33.3333 56.3058 33.3333 55.3333V53.3166C35.5611 52.8643 37.5413 51.6003 38.8895 49.77C40.2378 47.9397 40.8579 45.6738 40.6294 43.4121C40.401 41.1503 39.3403 39.0542 37.6532 37.5305C35.9662 36.0068 33.7732 35.1644 31.4999 35.1666H27.8333C27.3471 35.1666 26.8807 34.9735 26.5369 34.6297C26.1931 34.2859 25.9999 33.8195 25.9999 33.3333C25.9999 32.8471 26.1931 32.3808 26.5369 32.0369C26.8807 31.6931 27.3471 31.5 27.8333 31.5ZM69.9999 37H58.9999V3.99997C59.0025 3.35386 58.8343 2.71855 58.5124 2.15837C58.1904 1.59818 57.7262 1.13302 57.1666 0.809966C56.6092 0.488149 55.9769 0.318726 55.3333 0.318726C54.6896 0.318726 54.0573 0.488149 53.4999 0.809966L42.4999 7.11663L31.4999 0.809966C30.9425 0.488149 30.3102 0.318726 29.6666 0.318726C29.023 0.318726 28.3907 0.488149 27.8333 0.809966L16.8333 7.11663L5.83328 0.809966C5.27588 0.488149 4.64358 0.318726 3.99995 0.318726C3.35631 0.318726 2.72402 0.488149 2.16661 0.809966C1.60706 1.13302 1.14281 1.59818 0.820868 2.15837C0.498922 2.71855 0.330716 3.35386 0.333281 3.99997V62.6666C0.333281 65.584 1.49221 68.3819 3.55511 70.4448C5.61801 72.5077 8.4159 73.6666 11.3333 73.6666H62.6666C65.584 73.6666 68.3819 72.5077 70.4448 70.4448C72.5077 68.3819 73.6666 65.584 73.6666 62.6666V40.6666C73.6666 39.6942 73.2803 38.7615 72.5927 38.0739C71.905 37.3863 70.9724 37 69.9999 37ZM11.3333 66.3333C10.3608 66.3333 9.42819 65.947 8.74056 65.2594C8.05292 64.5717 7.66661 63.6391 7.66661 62.6666V10.3433L14.9999 14.5233C15.5659 14.8189 16.1948 14.9732 16.8333 14.9732C17.4717 14.9732 18.1007 14.8189 18.6666 14.5233L29.6666 8.21663L40.6666 14.5233C41.2325 14.8189 41.8615 14.9732 42.4999 14.9732C43.1384 14.9732 43.7674 14.8189 44.3333 14.5233L51.6666 10.3433V62.6666C51.6765 63.9175 51.8997 65.1575 52.3266 66.3333H11.3333ZM66.3333 62.6666C66.3333 63.6391 65.947 64.5717 65.2593 65.2594C64.5717 65.947 63.6391 66.3333 62.6666 66.3333C61.6942 66.3333 60.7615 65.947 60.0739 65.2594C59.3862 64.5717 58.9999 63.6391 58.9999 62.6666V44.3333H66.3333V62.6666Z" fill="#C5A2FF"></path>
  </symbol>
  <symbol xmlns="http://www.w3.org/2000/svg" viewBox="0 0 24 24" id="error">
    <path d="M268.734 136.97L208.862 136.117" stroke="#AD7CFE" stroke-width="2.548" stroke-linecap="round"></path>
    <path d="M264.924 136.059L238.002 147.677" stroke="black" stroke-width="2.548" stroke-linecap="round"></path>
    <path d="M212.671 137.029L239.593 125.41" stroke="#8D52ED" stroke-width="2.548" stroke-linecap="round"></path>
    <path d="M212.695 135.315L239.276 147.695" stroke="#8D52ED" stroke-width="2.548" stroke-linecap="round"></path>
    <path d="M264.9 137.772L238.319 125.392" stroke="#8D52ED" stroke-width="2.548" stroke-linecap="round"></path>
    <path d="M264.924 136.059L238.002 147.677" stroke="#8D52ED" stroke-width="2.548" stroke-linecap="round"></path>
    <path d="M245.645 147.786L231.633 147.586" stroke="#AD7CFE" stroke-width="2.548" stroke-linecap="round"></path>
    <path d="M245.963 125.501L231.95 125.301" stroke="#AD7CFE" stroke-width="2.548" stroke-linecap="round"></path>
    <path d="M276.198 62.8363L277.358 123.977C277.358 123.977 298.214 119.984 311.681 119.728C325.149 119.473 346.142 122.672 346.142 122.672L344.981 61.5311L276.198 62.8363Z" fill="#8D52ED"></path>
    <path d="M49.0828 72.943L52.1516 134.018C52.1516 134.018 72.8727 129.375 86.3258 128.699C99.7789 128.023 120.861 130.565 120.861 130.565L117.792 69.4905L49.0828 72.943Z" fill="#8D52ED"></path>
    <path d="M309.557 74.9454L310.186 108.063"  stroke-width="5.096" stroke-linecap="round"></path>
    <path d="M314.991 92.6815C312.726 92.7245 308.198 92.8104 304.801 92.8749" stroke="#47385F" stroke-width="6.1" stroke-linecap="round"></path>
    <path d="M317.442 87.5382C314.045 87.6027 307.252 87.7316 302.157 87.8283" stroke="#47385F" stroke-width="6.1" stroke-linecap="round"></path>
    <path d="M317.345 82.4432C313.948 82.5077 307.155 82.6366 302.06 82.7333" stroke="#47385F" stroke-width="6.1" stroke-linecap="round"></path>
    <path d="M317.249 77.348C313.852 77.4125 307.058 77.5414 301.963 77.6381" stroke="#47385F" stroke-width="6.1" stroke-linecap="round"></path>
    <circle cx="12.74" cy="12.74" r="12.74" transform="matrix(-0.99982 0.0189721 0.0189721 0.99982 322.73 97.6317)" fill="#AD7CFE"></circle>
    <path d="M317.684 100.276C319.414 101.942 322.88 105.529 322.996 111.643"  stroke-width="5.096" stroke-linecap="round"></path>
    <circle cx="5.096" cy="5.096" r="5.096" transform="matrix(-0.99982 0.0189721 0.0189721 0.99982 315.233 105.419)" fill="#9A5CFF"></circle>
    <path d="M84.0707 86.2635L85.6118 119.352"  stroke-width="5.096" stroke-linecap="round"></path>
    <path d="M89.9911 103.843C87.7287 103.948 83.2038 104.159 79.8101 104.317" stroke="#47385F" stroke-width="6.1" stroke-linecap="round"></path>
    <path d="M92.2993 98.6342C88.9057 98.7923 82.1184 99.1084 77.0279 99.3455" stroke="#47385F" stroke-width="6.1" stroke-linecap="round"></path>
    <path d="M92.0621 93.5438C88.6685 93.7019 81.8812 94.018 76.7907 94.2551" stroke="#47385F" stroke-width="6.1" stroke-linecap="round"></path>
    <path d="M91.8251 88.4532C88.4314 88.6113 81.6441 88.9274 76.5536 89.1645" stroke="#47385F" stroke-width="6.1" stroke-linecap="round"></path>
    <circle cx="12.74" cy="12.74" r="12.74" transform="matrix(-0.998917 0.0465271 0.0465271 0.998917 97.864 108.578)" fill="#AD7CFE"></circle>
    <path d="M92.892 111.36C94.6678 112.978 98.2314 116.468 98.5159 122.577"  stroke-width="5.096" stroke-linecap="round"></path>
    <circle cx="5.096" cy="5.096" r="5.096" transform="matrix(-0.998917 0.0465271 0.0465271 0.998917 90.5839 116.569)" fill="#9A5CFF"></circle>
    <path d="M202.692 9.38097C253.695 2.99811 306.561 6.19093 335.924 7.43547L340.71 7.55891C340.812 7.44851 339.688 9.06694 334.378 16.424C338.491 19.6318 342.73 23.7869 346.735 28.176C359.881 42.5806 370.368 60.097 371.373 79.5722C371.412 80.3161 371.438 80.9697 371.461 81.5214C372.577 108.878 369.202 112.815 362.342 123.663L345.158 124.364C343.63 124.427 342.841 119.677 342.696 118.727L342.51 114.161C342.211 106.824 341.629 99.2838 337.909 92.9533C333.019 84.632 323.913 76.1413 309.107 76.7454C295.244 77.311 286.744 85.4266 282.033 93.6025C277.697 101.126 277.637 110.147 277.991 118.823L278.211 124.227C278.284 126.009 277.047 126.931 276.419 127.169L123.03 133.428C118.956 133.594 118.011 130.232 118.048 128.531L117.412 112.937C116.191 103.849 107.83 85.9145 84.1535 86.8806C60.4768 87.8467 52.7562 106.438 52.8102 115.573C52.5942 118.144 52.5033 119.824 52.4913 121.467C52.4642 125.153 52.1402 130.172 52.3489 133.852C52.4878 136.3 51.0743 136.364 48.625 136.464L12.9201 137.921C11.1752 136.823 6.12305 129.145 4.52279 127.425C2.92254 125.706 3.34513 124.605 3.75648 124.269L7.57529 124.113C10.4122 118.642 8.44571 114.196 7.10783 112.657L3.92548 112.787C-6.65998 99.5218 16.7942 82.4703 32.1138 75.1687C51.1028 66.1182 71.5709 61.6906 102.014 55.8692C118.462 41.3046 144.412 28.2027 164.086 19.773C176.398 14.4976 189.401 11.0443 202.692 9.38097Z" fill="#AD7CFE"></path>
    <path d="M182.511 20.9241C230.697 8.1545 294.452 11.855 320.307 15.3015C341.272 29.1438 349.482 42.8386 350.965 47.9558L231.627 52.8252L112.289 57.6946C116.952 52.1916 137.525 37.1332 182.511 20.9241Z" fill="#C5A2FF"></path>
    <path d="M11.3837 95.9567C11.1294 100.872 29.9677 101.38 34.5905 101.619C39.2133 101.859 43.1671 98.0677 43.4214 93.1523C43.6757 88.2368 40.1343 84.0582 35.5115 83.819C30.8886 83.5798 11.638 91.0413 11.3837 95.9567Z" fill="#9A5CFF"></path>
    <path d="M102.631 57.7452C87.9188 40.9197 65.0149 10.8278 17.5006 2.56607" stroke="#AD7CFE" stroke-width="5.1" stroke-linecap="round"></path>
    <path d="M44.3306 63.5087C44.0414 61.7544 43.9263 59.6933 42.7867 58.2523C41.2977 56.3696 37.9811 56.1488 35.3725 56.0891C32.9867 56.0345 31.046 56.2889 33.1675 53.763C35.2615 51.2699 38.439 49.255 40.0947 46.537C41.0076 45.0385 41.3907 42.915 40.0641 41.7756C38.0624 40.0565 33.771 41.5035 31.1328 41.7173C24.1042 42.2867 27.9046 32.726 29.5388 29.2178" stroke="#AD7CFE" stroke-width="2.548" stroke-linecap="round"></path>
    <path d="M44.3306 63.5087C44.0414 61.7544 43.9263 59.6933 42.7867 58.2523C41.2977 56.3696 37.9811 56.1488 35.3725 56.0891C32.9867 56.0345 31.046 56.2889 33.1675 53.763C35.2615 51.2699 38.439 49.255 40.0947 46.537C41.0076 45.0385 41.3907 42.915 40.0641 41.7756C38.0624 40.0565 33.771 41.5035 31.1328 41.7173C24.1042 42.2867 27.9046 32.726 29.5388 29.2178" stroke="black" stroke-opacity="0.4" stroke-width="2.548" stroke-linecap="round"></path>
    <path d="M34.0946 67.3759C29.6695 64.105 24.7785 60.9371 19.2185 59.9104C17.6234 59.6158 14.8959 59.3296 13.9754 61.2176C13.4859 62.2216 13.7874 64.111 15.1217 64.3216C18.5596 64.864 19.7981 59.0965 19.7593 56.9334C19.6975 53.482 18.4682 50.2403 16.7678 47.3359" stroke="#AD7CFE" stroke-width="2.548" stroke-linecap="round"></path>
    <path d="M34.0946 67.3759C29.6695 64.105 24.7785 60.9371 19.2185 59.9104C17.6234 59.6158 14.8959 59.3296 13.9754 61.2176C13.4859 62.2216 13.7874 64.111 15.1217 64.3216C18.5596 64.864 19.7981 59.0965 19.7593 56.9334C19.6975 53.482 18.4682 50.2403 16.7678 47.3359" stroke="black" stroke-opacity="0.4" stroke-width="2.548" stroke-linecap="round"></path>
    <path d="M52.7071 60.3437C52.1488 56.9736 53.0739 53.2383 54.0236 49.7945C54.6516 47.517 55.319 44.9869 56.7392 42.8685" stroke="#AD7CFE" stroke-width="2.548" stroke-linecap="round"></path>
    <path d="M52.7071 60.3437C52.1488 56.9736 53.0739 53.2383 54.0236 49.7945C54.6516 47.517 55.319 44.9869 56.7392 42.8685" stroke="black" stroke-opacity="0.4" stroke-width="2.548" stroke-linecap="round"></path>
    <circle cx="29.2752" cy="29.2752" r="27.2752" transform="matrix(1 -1.13082e-09 -1.13082e-09 -1 56 151.55)" fill="#C5A2FF"></circle>
    <circle cx="29.2752" cy="29.2752" r="27.2752" transform="matrix(1 -1.13082e-09 -1.13082e-09 -1 56 151.55)" stroke="#9A5CFF" stroke-width="4"></circle>
    <circle cx="29.2752" cy="29.2752" r="27.2752" transform="matrix(1 -1.13082e-09 -1.13082e-09 -1 56 151.55)" stroke="black" stroke-opacity="0.2" stroke-width="4"></circle>
    <path d="M389.06 88.6173C393.026 87.1718 397.413 89.2155 398.859 93.182L414.126 135.077C415.572 139.043 413.528 143.431 409.561 144.876L395.684 149.933C391.717 151.379 387.33 149.335 385.885 145.369L370.617 103.474C369.172 99.5072 371.216 95.12 375.182 93.6745L389.06 88.6173Z" fill="#9A5CFF"></path>
    <path d="M389.06 88.6173C393.026 87.1718 397.413 89.2155 398.859 93.182L414.126 135.077C415.572 139.043 413.528 143.431 409.561 144.876L395.684 149.933C391.717 151.379 387.33 149.335 385.885 145.369L370.617 103.474C369.172 99.5072 371.216 95.12 375.182 93.6745L389.06 88.6173Z" fill="black" fill-opacity="0.2"></path>
  </symbol>
  <symbol xmlns="http://www.w3.org/2000/svg" viewBox="0 0 24 24" id="messenger">
    <path d="M12 2.00001C10.6994 1.95278 9.40265 2.16913 8.18781 2.63605C6.97297 3.10297 5.86513 3.8108 4.93095 4.71696C3.99676 5.62313 3.25552 6.7089 2.75183 7.90895C2.24814 9.10901 1.9924 10.3986 2 11.7C1.98324 13.0512 2.25462 14.3904 2.79605 15.6285C3.33749 16.8665 4.13655 17.975 5.14 18.88C5.21967 18.951 5.28453 19.037 5.33086 19.1331C5.3772 19.2292 5.40409 19.3335 5.41 19.44V21.22C5.41548 21.3512 5.45278 21.4791 5.5187 21.5927C5.58461 21.7063 5.67716 21.8022 5.78836 21.8721C5.89956 21.9419 6.02608 21.9837 6.15703 21.9938C6.28797 22.0039 6.4194 21.982 6.54 21.93L8.54 21.06C8.71078 20.9955 8.89922 20.9955 9.07 21.06C10.0154 21.3152 10.9907 21.443 11.97 21.44C14.5479 21.444 17.0218 20.4237 18.8475 18.6037C20.6731 16.7837 21.701 14.3129 21.705 11.735C21.709 9.1571 20.6887 6.6832 18.8687 4.85754C17.0486 3.03187 14.5779 2.00399 12 2.00001ZM18 9.46001L15.07 14.12C14.9595 14.2955 14.8138 14.4461 14.6422 14.5624C14.4705 14.6787 14.2766 14.7582 14.0727 14.7957C13.8688 14.8333 13.6593 14.8282 13.4574 14.7808C13.2556 14.7333 13.0658 14.6445 12.9 14.52L10.56 12.77C10.4561 12.6921 10.3298 12.65 10.2 12.65C10.0702 12.65 9.94386 12.6921 9.84 12.77L6.68 15.17C6.59199 15.2379 6.48278 15.2724 6.37176 15.2674C6.26073 15.2623 6.15507 15.2181 6.07355 15.1426C5.99202 15.0671 5.9399 14.9651 5.92643 14.8548C5.91297 14.7445 5.93903 14.6329 6 14.54L8.93 9.88001C9.0405 9.70456 9.18618 9.55393 9.35784 9.43763C9.52949 9.32132 9.7234 9.24187 9.92731 9.20428C10.1312 9.16669 10.3407 9.17179 10.5425 9.21925C10.7444 9.2667 10.9342 9.35549 11.1 9.48001L13.44 11.23C13.5439 11.3079 13.6702 11.35 13.8 11.35C13.9298 11.35 14.0561 11.3079 14.16 11.23L17.32 8.83001C17.408 8.76214 17.5172 8.72765 17.6282 8.73266C17.7393 8.73768 17.8449 8.78188 17.9264 8.85741C18.008 8.93294 18.0601 9.03492 18.0736 9.14524C18.087 9.25556 18.061 9.36708 18 9.46001Z" fill="#B081FE"></path>
  </symbol>
  <symbol xmlns="http://www.w3.org/2000/svg" viewBox="0 0 24 24" id="facebook">
    <path d="M20.9 2H3.1C2.80826 2 2.52847 2.11589 2.32218 2.32218C2.11589 2.52847 2 2.80826 2 3.1V20.9C2 21.0445 2.02845 21.1875 2.08373 21.321C2.13901 21.4544 2.22004 21.5757 2.32218 21.6778C2.42433 21.78 2.54559 21.861 2.67905 21.9163C2.81251 21.9715 2.95555 22 3.1 22H12.68V14.25H10.08V11.25H12.68V9C12.6261 8.47176 12.6885 7.93813 12.8627 7.43654C13.0369 6.93495 13.3188 6.47755 13.6885 6.09641C14.0582 5.71528 14.5068 5.41964 15.0028 5.23024C15.4989 5.04083 16.0304 4.96225 16.56 5C17.3383 4.99521 18.1163 5.03528 18.89 5.12V7.82H17.3C16.04 7.82 15.8 8.42 15.8 9.29V11.22H18.8L18.41 14.22H15.8V22H20.9C21.0445 22 21.1875 21.9715 21.321 21.9163C21.4544 21.861 21.5757 21.78 21.6778 21.6778C21.78 21.5757 21.861 21.4544 21.9163 21.321C21.9715 21.1875 22 21.0445 22 20.9V3.1C22 2.95555 21.9715 2.81251 21.9163 2.67905C21.861 2.54559 21.78 2.42433 21.6778 2.32218C21.5757 2.22004 21.4544 2.13901 21.321 2.08373C21.1875 2.02845 21.0445 2 20.9 2Z" fill="#B081FE"></path>
  </symbol>
  <symbol xmlns="http://www.w3.org/2000/svg" viewBox="0 0 24 24" id="frame">
    <path d="M17.457 10.8469L8.45664 3.34658C8.15068 3.09349 7.75689 2.97196 7.3615 3.00861C6.96612 3.04525 6.60137 3.23708 6.34713 3.54209C6.09289 3.84711 5.96988 4.24044 6.00504 4.63595C6.04019 5.03147 6.23065 5.39694 6.53469 5.65233L14.1522 11.9998L6.53469 18.3473C6.22947 18.6024 6.03797 18.9681 6.00224 19.3643C5.96652 19.7604 6.08949 20.1545 6.34416 20.46C6.59883 20.7656 6.96436 20.9575 7.36045 20.9937C7.75655 21.0299 8.15081 20.9074 8.45664 20.6531L17.457 13.1527C17.6258 13.0117 17.7615 12.8353 17.8547 12.6361C17.9478 12.4369 17.9961 12.2197 17.9961 11.9998C17.9961 11.7799 17.9478 11.5626 17.8547 11.3634C17.7615 11.1642 17.6258 10.9879 17.457 10.8469Z" fill="#AD7CFE"></path>
  </symbol>
  <symbol xmlns="http://www.w3.org/2000/svg" viewBox="0 0 24 24" id="googlePink">
    <path d="M22.6023 10.0039C22.5606 9.7733 22.4393 9.56464 22.2594 9.41435C22.0796 9.26407 21.8527 9.18171 21.6184 9.18165H12.2C12.0686 9.18162 11.9386 9.20746 11.8172 9.2577C11.6959 9.30795 11.5857 9.38161 11.4928 9.47447C11.3999 9.56734 11.3263 9.67759 11.276 9.79893C11.2258 9.92027 11.1999 10.0503 11.2 10.1817V14.0498C11.1999 14.1811 11.2258 14.3112 11.276 14.4325C11.3263 14.5539 11.3999 14.6641 11.4928 14.757C11.5857 14.8499 11.6959 14.9235 11.8172 14.9738C11.9386 15.024 12.0686 15.0498 12.2 15.0498H16.1624C15.88 15.5264 15.493 15.9324 15.0305 16.2373C14.1854 16.7731 13.2004 17.0464 12.2 17.0225C11.1624 17.0106 10.1551 16.672 9.32096 16.0549C8.48686 15.4377 7.86849 14.5734 7.55373 13.5847L7.55344 13.583C7.20317 12.5564 7.20317 11.4426 7.55344 10.416L7.55368 10.4144C7.86866 9.42587 8.48712 8.56176 9.3212 7.9448C10.1553 7.32784 11.1626 6.9894 12.2 6.97755C12.7764 6.96432 13.3497 7.06509 13.8871 7.27407C14.4245 7.48305 14.9152 7.79613 15.3313 8.19532C15.5202 8.37588 15.7723 8.47534 16.0337 8.47242C16.295 8.4695 16.5448 8.36444 16.7297 8.1797L19.5979 5.31153C19.6929 5.21664 19.7678 5.10356 19.8182 4.97905C19.8685 4.85455 19.8932 4.72118 19.8908 4.5869C19.8885 4.45263 19.8591 4.32021 19.8044 4.19756C19.7497 4.07491 19.6708 3.96455 19.5725 3.87306C17.5766 2.00177 14.9357 0.972625 12.2 1.00001C10.1599 0.993978 8.15873 1.55803 6.4221 2.62855C4.68547 3.69908 3.28247 5.2335 2.37131 7.05879L2.36984 7.06056C1.59737 8.59232 1.19659 10.2845 1.19997 12C1.20241 13.7149 1.60289 15.4057 2.36989 16.9395L2.37136 16.9412C3.28252 18.7665 4.68551 20.3009 6.42213 21.3715C8.15875 22.442 10.1599 23.006 12.2 23C14.8853 23.068 17.4951 22.1067 19.4947 20.313L19.4954 20.3125L19.4962 20.3117L19.4964 20.3115L19.4964 20.3114C20.5803 19.2688 21.434 18.011 22.003 16.6188C22.5719 15.2266 22.8434 13.7309 22.8001 12.2276C22.8005 11.4819 22.7343 10.7378 22.6023 10.0039ZM12.2 3.00001C14.071 2.9818 15.8979 3.56856 17.4085 4.67286L15.9548 6.12601C14.8526 5.36307 13.5404 4.96172 12.2 4.97755C10.9762 4.98385 9.7762 5.31614 8.7235 5.94024C7.6708 6.56433 6.80343 7.45768 6.21066 8.52833L5.14145 7.69959L4.55645 7.24592C5.36122 5.94377 6.48644 4.86972 7.82461 4.12637C9.16278 3.38303 10.6692 2.99523 12.2 3.00001ZM3.67941 14.9033C3.04009 13.0206 3.04009 10.9794 3.67941 9.09669L5.46164 10.4785C5.23377 11.4797 5.23377 12.5193 5.46164 13.5205L3.67941 14.9033ZM12.2 21C10.6692 21.0048 9.16274 20.6169 7.82455 19.8736C6.48637 19.1302 5.36114 18.0561 4.55637 16.7539L4.93478 16.4604L6.21066 15.4707C6.80317 16.5417 7.67046 17.4353 8.7232 18.0596C9.77593 18.6839 10.9761 19.0163 12.2 19.0225C13.3456 19.0359 14.4783 18.7787 15.5057 18.2717L17.1974 19.585C15.7096 20.5436 13.9695 21.0363 12.2 21ZM18.7259 18.2393L18.5429 18.0973L17.1655 17.028C17.8877 16.2477 18.3731 15.2782 18.5652 14.2325C18.592 14.0881 18.5867 13.9396 18.5497 13.7976C18.5127 13.6555 18.4448 13.5233 18.351 13.4104C18.2571 13.2975 18.1395 13.2067 18.0066 13.1444C17.8736 13.0821 17.7286 13.0498 17.5818 13.0499H13.2V11.1817H20.7488C20.783 11.5274 20.8001 11.877 20.8001 12.2276C20.8585 14.4164 20.1216 16.5522 18.7258 18.2393H18.7259Z" fill="#B081FE"></path>
  </symbol>
  <symbol xmlns="http://www.w3.org/2000/svg" viewBox="0 0 24 24" id="googleWhite">
<path d="M21.6023 9.00395C21.5606 8.77333 21.4393 8.56467 21.2594 8.41438C21.0796 8.2641 20.8527 8.18174 20.6184 8.18168H11.2C11.0686 8.18165 10.9386 8.20749 10.8172 8.25774C10.6959 8.30798 10.5857 8.38164 10.4928 8.4745C10.3999 8.56737 10.3263 8.67762 10.276 8.79896C10.2258 8.9203 10.1999 9.05035 10.2 9.18168V13.0498C10.1999 13.1812 10.2258 13.3112 10.276 13.4326C10.3263 13.5539 10.3999 13.6642 10.4928 13.757C10.5857 13.8499 10.6959 13.9236 10.8172 13.9738C10.9386 14.024 11.0686 14.0499 11.2 14.0498H15.1624C14.88 14.5264 14.493 14.9325 14.0305 15.2373C13.1854 15.7732 12.2004 16.0464 11.2 16.0225C10.1624 16.0106 9.15505 15.6721 8.32096 15.0549C7.48686 14.4378 6.86849 13.5734 6.55373 12.5847L6.55344 12.583C6.20317 11.5564 6.20317 10.4427 6.55344 9.41605L6.55368 9.41439C6.86866 8.4259 7.48712 7.56179 8.3212 6.94483C9.15529 6.32787 10.1626 5.98943 11.2 5.97758C11.7764 5.96435 12.3497 6.06512 12.8871 6.2741C13.4245 6.48309 13.9152 6.79616 14.3313 7.19535C14.5202 7.37591 14.7723 7.47537 15.0337 7.47245C15.295 7.46953 15.5448 7.36447 15.7297 7.17974L18.5979 4.31156C18.6929 4.21667 18.7678 4.10359 18.8182 3.97908C18.8685 3.85458 18.8932 3.72121 18.8908 3.58693C18.8885 3.45266 18.8591 3.32024 18.8044 3.19759C18.7497 3.07494 18.6708 2.96458 18.5725 2.87309C16.5766 1.0018 13.9357 -0.0273445 11.2 4.4708e-05C9.15991 -0.0059912 7.15873 0.558057 5.4221 1.62858C3.68547 2.69911 2.28247 4.23353 1.37131 6.05883L1.36984 6.0606C0.59737 7.59235 0.19659 9.28453 0.199972 11C0.202406 12.7149 0.60289 14.4057 1.36989 15.9395L1.37136 15.9413C2.28252 17.7665 3.68551 19.301 5.42213 20.3715C7.15875 21.442 9.15992 22.0061 11.2 22C13.8853 22.068 16.4951 21.1067 18.4947 19.313L18.4954 19.3126L18.4962 19.3117L18.4964 19.3116L18.4964 19.3115C19.5803 18.2688 20.434 17.011 21.003 15.6188C21.5719 14.2267 21.8434 12.7309 21.8001 11.2276C21.8005 10.482 21.7343 9.7378 21.6023 9.00395ZM11.2 2.00004C13.071 1.98183 14.8979 2.56859 16.4085 3.67289L14.9548 5.12604C13.8526 4.3631 12.5404 3.96175 11.2 3.97758C9.9762 3.98388 8.7762 4.31617 7.7235 4.94027C6.6708 5.56437 5.80343 6.45771 5.21066 7.52837L4.14145 6.69963L3.55645 6.24595C4.36122 4.9438 5.48644 3.86975 6.82461 3.1264C8.16278 2.38306 9.66921 1.99526 11.2 2.00004ZM2.67941 13.9034C2.04009 12.0206 2.04009 9.97948 2.67941 8.09672L4.46164 9.47857C4.23377 10.4798 4.23377 11.5194 4.46164 12.5206L2.67941 13.9034ZM11.2 20C9.66918 20.0048 8.16274 19.617 6.82455 18.8736C5.48637 18.1302 4.36114 17.0561 3.55637 15.754L3.93478 15.4604L5.21066 14.4707C5.80317 15.5417 6.67046 16.4353 7.7232 17.0596C8.77593 17.6839 9.97606 18.0163 11.2 18.0225C12.3456 18.036 13.4783 17.7787 14.5057 17.2717L16.1974 18.585C14.7096 19.5437 12.9695 20.0364 11.2 20ZM17.7259 17.2393L17.5429 17.0973L16.1655 16.028C16.8877 15.2478 17.3731 14.2782 17.5652 13.2325C17.592 13.0882 17.5867 12.9397 17.5497 12.7976C17.5127 12.6555 17.4448 12.5233 17.351 12.4105C17.2571 12.2976 17.1395 12.2067 17.0066 12.1444C16.8736 12.0821 16.7286 12.0498 16.5818 12.0499H12.2V10.1817H19.7488C19.783 10.5274 19.8001 10.877 19.8001 11.2276C19.8585 13.4164 19.1216 15.5522 17.7258 17.2393H17.7259Z" fill="white"/>
  </symbol>
  <symbol xmlns="http://www.w3.org/2000/svg" viewBox="0 0 44 35" width='44' height='35' id="icon-language">
    <path d="M0 4.375C0 1.96191 1.97313 0 4.4 0H17.6H20.9H22H39.6C42.0269 0 44 1.96191 44 4.375V21.875C44 24.2881 42.0269 26.25 39.6 26.25H22H20.9H17.6H4.4C1.97313 26.25 0 24.2881 0 21.875V4.375ZM22 4.375V21.875H39.6V4.375H22ZM12.2581 7.64941C12.0381 7.15723 11.5431 6.83594 11 6.83594C10.4569 6.83594 9.96187 7.15723 9.74187 7.64941L5.34188 17.4932C5.0325 18.1836 5.34875 18.9902 6.04313 19.2979C6.7375 19.6055 7.54875 19.291 7.85813 18.6006L8.47 17.2266H13.53L14.1419 18.6006C14.4513 19.291 15.2625 19.5986 15.9569 19.2979C16.6513 18.9971 16.9606 18.1836 16.6581 17.4932L12.2581 7.64941ZM11 11.5664L12.3063 14.4922H9.69375L11 11.5664ZM30.8 6.83594C31.5563 6.83594 32.175 7.45117 32.175 8.20312V8.47656H35.2H36.3C37.0563 8.47656 37.675 9.0918 37.675 9.84375C37.675 10.5957 37.0563 11.2109 36.3 11.2109H36.1625L36.0525 11.5186C35.4406 13.1865 34.5125 14.7041 33.33 15.9893C33.3919 16.0303 33.4538 16.0645 33.5156 16.0986L34.815 16.8711C35.4681 17.2607 35.6744 18.1016 35.2894 18.7441C34.9044 19.3867 34.0519 19.5986 33.4056 19.2158L32.1063 18.4434C31.7969 18.2588 31.5013 18.0674 31.2056 17.8623C30.4769 18.375 29.7 18.8193 28.8681 19.1885L28.6206 19.2979C27.9263 19.6055 27.115 19.291 26.8056 18.6006C26.4963 17.9102 26.8125 17.1035 27.5069 16.7959L27.7544 16.6865C28.1944 16.4883 28.6206 16.2695 29.0263 16.0166L28.1875 15.1826C27.6513 14.6494 27.6513 13.7812 28.1875 13.248C28.7238 12.7148 29.5969 12.7148 30.1331 13.248L31.1369 14.2461L31.1712 14.2803C32.0238 13.3848 32.7181 12.3457 33.22 11.2041H30.8H25.85C25.0938 11.2041 24.475 10.5889 24.475 9.83691C24.475 9.08496 25.0938 8.46973 25.85 8.46973H29.425V8.19629C29.425 7.44434 30.0438 6.8291 30.8 6.8291V6.83594Z" fill="white"></path>
  </symbol>
  <symbol xmlns="http://www.w3.org/2000/svg" viewBox="0 0 24 24" id="icon">
    <path d="M22.8332 12.1C20.7291 7.41 16.7707 4.5 12.4999 4.5C8.22905 4.5 4.27072 7.41 2.16655 12.1C2.1092 12.2262 2.07959 12.3623 2.07959 12.5C2.07959 12.6377 2.1092 12.7738 2.16655 12.9C4.27072 17.59 8.22905 20.5 12.4999 20.5C16.7707 20.5 20.7291 17.59 22.8332 12.9C22.8906 12.7738 22.9202 12.6377 22.9202 12.5C22.9202 12.3623 22.8906 12.2262 22.8332 12.1ZM12.4999 18.5C9.18739 18.5 6.0728 16.21 4.27072 12.5C6.0728 8.79 9.18739 6.5 12.4999 6.5C15.8124 6.5 18.927 8.79 20.7291 12.5C18.927 16.21 15.8124 18.5 12.4999 18.5ZM12.4999 8.5C11.6758 8.5 10.8702 8.7346 10.185 9.17412C9.49981 9.61365 8.96575 10.2384 8.65039 10.9693C8.33502 11.7002 8.25251 12.5044 8.41328 13.2804C8.57405 14.0563 8.97089 14.769 9.55361 15.3284C10.1363 15.8878 10.8788 16.2688 11.687 16.4231C12.4953 16.5775 13.333 16.4983 14.0944 16.1955C14.8558 15.8928 15.5065 15.3801 15.9643 14.7223C16.4222 14.0645 16.6666 13.2911 16.6666 12.5C16.6666 11.4391 16.2276 10.4217 15.4462 9.67157C14.6648 8.92143 13.605 8.5 12.4999 8.5ZM12.4999 14.5C12.0878 14.5 11.6851 14.3827 11.3424 14.1629C10.9998 13.9432 10.7328 13.6308 10.5751 13.2654C10.4175 12.8999 10.3762 12.4978 10.4566 12.1098C10.537 11.7219 10.7354 11.3655 11.0267 11.0858C11.3181 10.8061 11.6893 10.6156 12.0934 10.5384C12.4976 10.4613 12.9165 10.5009 13.2971 10.6522C13.6778 10.8036 14.0032 11.06 14.2321 11.3889C14.461 11.7178 14.5832 12.1044 14.5832 12.5C14.5832 13.0304 14.3637 13.5391 13.973 13.9142C13.5823 14.2893 13.0524 14.5 12.4999 14.5Z" fill="#47385F"></path>
    <path d="M21.5978 3.76606C21.5107 3.68176 21.4071 3.61484 21.2929 3.56918C21.1788 3.52351 21.0563 3.5 20.9326 3.5C20.8089 3.5 20.6865 3.52351 20.5723 3.56918C20.4581 3.61484 20.3545 3.68176 20.2674 3.76606L3.40215 19.9567C3.31433 20.0403 3.24463 20.1398 3.19706 20.2494C3.14949 20.359 3.125 20.4766 3.125 20.5953C3.125 20.714 3.14949 20.8316 3.19706 20.9412C3.24463 21.0508 3.31433 21.1503 3.40215 21.2339C3.48925 21.3182 3.59288 21.3852 3.70706 21.4308C3.82123 21.4765 3.9437 21.5 4.06739 21.5C4.19108 21.5 4.31354 21.4765 4.42772 21.4308C4.5419 21.3852 4.64553 21.3182 4.73263 21.2339L21.5978 5.04332C21.6857 4.95971 21.7554 4.86022 21.8029 4.75061C21.8505 4.641 21.875 4.52344 21.875 4.40469C21.875 4.28595 21.8505 4.16839 21.8029 4.05878C21.7554 3.94917 21.6857 3.84968 21.5978 3.76606Z" fill="#47385F"></path>
  </symbol>
  <symbol xmlns="http://www.w3.org/2000/svg" viewBox="0 0 24 24" id="mapLogo">
      <path d="M12.2461 2C10.0588 2.00248 7.96184 2.87247 6.4152 4.41911C4.86857 5.96575 3.99858 8.06273 3.99609 10.25C3.99609 17.3094 11.4961 22.6437 11.8148 22.8687C11.9426 22.9538 12.0926 22.9992 12.2461 22.9992C12.3996 22.9992 12.5496 22.9538 12.6773 22.8687C12.9961 22.6437 20.4961 17.3094 20.4961 10.25C20.4936 8.06273 19.6236 5.96575 18.077 4.41911C16.5303 2.87247 14.4334 2.00248 12.2461 2ZM12.2461 7.25C12.8394 7.25 13.4195 7.42595 13.9128 7.75559C14.4062 8.08524 14.7907 8.55377 15.0177 9.10195C15.2448 9.65013 15.3042 10.2533 15.1884 10.8353C15.0727 11.4172 14.787 11.9518 14.3674 12.3713C13.9479 12.7909 13.4133 13.0766 12.8314 13.1924C12.2494 13.3081 11.6462 13.2487 11.098 13.0216C10.5499 12.7946 10.0813 12.4101 9.75169 11.9167C9.42204 11.4234 9.24609 10.8433 9.24609 10.25C9.24609 9.45435 9.56216 8.69129 10.1248 8.12868C10.6874 7.56607 11.4504 7.25 12.2461 7.25Z" ></path>
  </symbol>
  <symbol xmlns="http://www.w3.org/2000/svg" width="33" height="94" viewBox="0 0 33 94" id="parking">
    <rect x="0.959961" y="0.700012" width="32" height="40" rx="2.88" fill="#C5A2FF"></rect>
    <rect x="3.39014" y="3.9137" width="27" height="34" rx="2.88" fill="#AD7CFE"></rect>
    <path d="M12 31V21.8065M12 21.8065V12H17.1384C18.4569 12 19.7198 12.531 20.6422 13.4732V13.4732C22.5081 15.3792 22.5081 18.4272 20.6422 20.3333V20.3333C19.7198 21.2754 18.4569 21.8065 17.1384 21.8065H12Z"  stroke-width="3" stroke-linecap="round" stroke-linejoin="round"></path>
    <rect x="15.542" y="40.4692" width="3" height="54" fill="#8D52ED"></rect>
  </symbol>
  <symbol xmlns="http://www.w3.org/2000/svg" width="146" height="53" viewBox="0 0 146 53" id="rightCar">
    <path d="M65.0264 0.635577C44.9242 -1.05131 24.2442 1.04662 12.75 2.00447L10.875 2.12946C10.8333 2.0878 11.3 2.70446 13.5 5.50446C11.9387 6.8282 10.3428 8.52541 8.84233 10.3106C3.91799 16.1695 0.0856844 23.2062 0.00315285 30.8593C0 31.1516 0 31.4083 0 31.625C-1.70915e-05 42.3705 1.38671 43.8602 4.25 48.0045H11C11.6 48.0045 11.8333 46.1295 11.875 45.7545V43.961C11.875 41.0793 11.9825 38.113 13.34 35.5711C15.1243 32.2297 18.5593 28.7545 24.375 28.7545C29.8201 28.7545 33.2833 31.8009 35.2616 34.9316C37.082 37.8123 37.25 41.349 37.25 44.7567V46.8795C37.25 47.5795 37.75 47.9211 38 48.0045H98.25C99.85 48.0045 100.167 46.6711 100.125 46.0045V39.8795C100.458 36.2961 103.45 29.1295 112.75 29.1295C122.05 29.1295 125.375 36.2961 125.5 39.8795C125.626 40.8841 125.688 41.5414 125.719 42.1857C125.789 43.6306 125.996 45.5935 125.973 47.0399C125.958 48.0019 126.513 48.0045 127.475 48.0045H141.5C142.167 47.5461 144.025 44.4545 144.625 43.7545C145.225 43.0545 145.042 42.6295 144.875 42.5045H143.375C142.175 40.4045 142.875 38.6295 143.375 38.0045H144.625C148.564 32.6335 139.094 26.3222 132.969 23.7041C125.378 20.4589 117.281 19.0501 105.25 17.2545C98.567 11.8063 88.1814 7.08377 80.3317 4.09297C75.4192 2.22129 70.2649 1.07517 65.0264 0.635577Z" fill="#AD7CFE"></path>
    <path d="M73.125 4.83915C54.025 0.602721 29.0833 3.07397 19 4.83915C11 10.6027 8 16.1043 7.5 18.1347H54.375H101.25C99.3333 16.0514 91.025 10.4756 73.125 4.83915Z" fill="#8D52ED"></path>
    <circle cx="113" cy="42" r="11.75" fill="#8D52ED"></circle>
    <circle cx="24.5" cy="42" r="11.75" fill="#8D52ED"></circle>
    <path d="M141.431 31.5242C141.609 33.4477 134.23 33.9483 132.421 34.1161C130.612 34.2838 129.001 32.8605 128.823 30.9371C128.645 29.0136 129.966 27.3184 131.775 27.1506C133.584 26.9828 141.253 29.6007 141.431 31.5242Z" fill="#C5A2FF"></path>
  </symbol>
  <symbol xmlns="http://www.w3.org/2000/svg" viewBox="0 0 24 24" id="time">
    <path d="M11.7461 2C6.36156 2 1.99609 6.36547 1.99609 11.75C1.99609 17.1345 6.36156 21.5 11.7461 21.5C17.1306 21.5 21.4961 17.1345 21.4961 11.75C21.4961 6.36547 17.1306 2 11.7461 2ZM16.2461 13.25H11.7461C11.5472 13.25 11.3564 13.171 11.2158 13.0303C11.0751 12.8897 10.9961 12.6989 10.9961 12.5V5.75C10.9961 5.55109 11.0751 5.36032 11.2158 5.21967C11.3564 5.07902 11.5472 5 11.7461 5C11.945 5 12.1358 5.07902 12.2764 5.21967C12.4171 5.36032 12.4961 5.55109 12.4961 5.75V11.75H16.2461C16.445 11.75 16.6358 11.829 16.7764 11.9697C16.9171 12.1103 16.9961 12.3011 16.9961 12.5C16.9961 12.6989 16.9171 12.8897 16.7764 13.0303C16.6358 13.171 16.445 13.25 16.2461 13.25Z" fill="#AD7CFE"></path>
  </symbol>
  <symbol xmlns="http://www.w3.org/2000/svg" viewBox="0 0 24 24" id="instagram">
    <path d="M15.34 3.46C15.1027 3.46 14.8707 3.53038 14.6733 3.66224C14.476 3.79409 14.3222 3.98151 14.2313 4.20078C14.1405 4.42005 14.1168 4.66133 14.1631 4.89411C14.2094 5.12689 14.3236 5.34071 14.4915 5.50853C14.6593 5.67635 14.8731 5.79064 15.1059 5.83694C15.3387 5.88324 15.5799 5.85948 15.7992 5.76866C16.0185 5.67783 16.2059 5.52402 16.3378 5.32668C16.4696 5.12935 16.54 4.89734 16.54 4.66C16.54 4.34174 16.4136 4.03652 16.1885 3.81147C15.9635 3.58643 15.6583 3.46 15.34 3.46ZM19.94 5.88C19.9206 5.0503 19.7652 4.2294 19.48 3.45C19.2257 2.78313 18.83 2.17928 18.32 1.68C17.8248 1.16743 17.2196 0.774176 16.55 0.53C15.7727 0.236161 14.9508 0.07721 14.12 0.0599999C13.06 -5.58794e-08 12.72 0 10 0C7.28 0 6.94 -5.58794e-08 5.88 0.0599999C5.04915 0.07721 4.22734 0.236161 3.45 0.53C2.78168 0.776649 2.17693 1.16956 1.68 1.68C1.16743 2.17518 0.774176 2.78044 0.53 3.45C0.236161 4.22734 0.07721 5.04915 0.0599999 5.88C-5.58794e-08 6.94 0 7.28 0 10C0 12.72 -5.58794e-08 13.06 0.0599999 14.12C0.07721 14.9508 0.236161 15.7727 0.53 16.55C0.774176 17.2196 1.16743 17.8248 1.68 18.32C2.17693 18.8304 2.78168 19.2234 3.45 19.47C4.22734 19.7638 5.04915 19.9228 5.88 19.94C6.94 20 7.28 20 10 20C12.72 20 13.06 20 14.12 19.94C14.9508 19.9228 15.7727 19.7638 16.55 19.47C17.2196 19.2258 17.8248 18.8326 18.32 18.32C18.8322 17.8226 19.2283 17.2182 19.48 16.55C19.7652 15.7706 19.9206 14.9497 19.94 14.12C19.94 13.06 20 12.72 20 10C20 7.28 20 6.94 19.94 5.88ZM18.14 14C18.1327 14.6348 18.0178 15.2637 17.8 15.86C17.6403 16.2952 17.3839 16.6884 17.05 17.01C16.7256 17.3405 16.3332 17.5964 15.9 17.76C15.3037 17.9778 14.6748 18.0927 14.04 18.1C13.04 18.15 12.67 18.16 10.04 18.16C7.41 18.16 7.04 18.16 6.04 18.1C5.38089 18.1123 4.72459 18.0109 4.1 17.8C3.68578 17.6281 3.31136 17.3728 3 17.05C2.66809 16.7287 2.41484 16.3352 2.26 15.9C2.01586 15.2952 1.88044 14.6519 1.86 14C1.86 13 1.8 12.63 1.8 10C1.8 7.37 1.8 7 1.86 6C1.86448 5.35106 1.98295 4.70795 2.21 4.1C2.38605 3.67791 2.65627 3.30166 3 3C3.30381 2.65617 3.67929 2.3831 4.1 2.2C4.70955 1.98004 5.352 1.86508 6 1.86C7 1.86 7.37 1.8 10 1.8C12.63 1.8 13 1.8 14 1.86C14.6348 1.86728 15.2637 1.98225 15.86 2.2C16.3144 2.36865 16.7223 2.64285 17.05 3C17.3777 3.30718 17.6338 3.68273 17.8 4.1C18.0223 4.70893 18.1373 5.35178 18.14 6C18.19 7 18.2 7.37 18.2 10C18.2 12.63 18.19 13 18.14 14ZM10 4.87C8.98581 4.87198 7.99496 5.17453 7.15265 5.73942C6.31035 6.30431 5.65438 7.1062 5.26763 8.04375C4.88089 8.98131 4.78072 10.0125 4.97979 11.0069C5.17886 12.0014 5.66824 12.9145 6.38608 13.631C7.10392 14.3474 8.01801 14.835 9.01286 15.0321C10.0077 15.2293 11.0387 15.1271 11.9755 14.7385C12.9123 14.35 13.7129 13.6924 14.2761 12.849C14.8394 12.0056 15.14 11.0142 15.14 10C15.1413 9.3251 15.0092 8.65661 14.7512 8.03296C14.4933 7.40931 14.1146 6.84281 13.6369 6.36605C13.1592 5.88929 12.5919 5.51168 11.9678 5.25493C11.3436 4.99818 10.6749 4.86736 10 4.87ZM10 13.33C9.34139 13.33 8.69757 13.1347 8.14995 12.7688C7.60234 12.4029 7.17552 11.8828 6.92348 11.2743C6.67144 10.6659 6.6055 9.99631 6.73398 9.35035C6.86247 8.70439 7.17963 8.11104 7.64533 7.64533C8.11104 7.17963 8.70439 6.86247 9.35035 6.73398C9.99631 6.6055 10.6659 6.67144 11.2743 6.92348C11.8828 7.17552 12.4029 7.60234 12.7688 8.14995C13.1347 8.69757 13.33 9.34139 13.33 10C13.33 10.4373 13.2439 10.8703 13.0765 11.2743C12.9092 11.6784 12.6639 12.0454 12.3547 12.3547C12.0454 12.6639 11.6784 12.9092 11.2743 13.0765C10.8703 13.2439 10.4373 13.33 10 13.33Z" />
  </symbol>
  <symbol xmlns="http://www.w3.org/2000/svg" viewBox="0 0 24 24" id="twitter">
    <path d="M21.9912 1.95021C21.9913 1.77357 21.9446 1.60007 21.8558 1.44735C21.7671 1.29464 21.6394 1.16817 21.4859 1.08084C21.3324 0.993502 21.1584 0.948416 20.9818 0.95017C20.8052 0.951925 20.6322 1.00046 20.4804 1.09083C19.8951 1.43921 19.265 1.70601 18.6074 1.88383C17.6684 1.07806 16.4708 0.637129 15.2334 0.641636C13.876 0.643198 12.5723 1.17223 11.5976 2.11702C10.623 3.06181 10.0536 4.3484 10.0098 5.70512C7.33378 5.27838 4.90843 3.88164 3.19625 1.78126C3.09308 1.65609 2.96133 1.55757 2.81211 1.494C2.66288 1.43043 2.50056 1.40368 2.33883 1.41601C2.17719 1.42932 2.02122 1.4818 1.88442 1.56892C1.74762 1.65603 1.63409 1.77516 1.55367 1.91601C1.1412 2.63582 0.9043 3.44276 0.862218 4.27131C0.820137 5.09986 0.974057 5.92666 1.31148 6.68456L1.30953 6.68651C1.15788 6.77991 1.03272 6.91066 0.946034 7.06625C0.859347 7.22185 0.814028 7.39708 0.814409 7.57519C0.812573 7.72211 0.821386 7.86898 0.840779 8.01464C0.942916 9.2729 1.50056 10.4507 2.40914 11.3271C2.3475 11.4446 2.30988 11.5731 2.29848 11.7052C2.28708 11.8373 2.30212 11.9704 2.34273 12.0967C2.73884 13.3308 3.58123 14.3727 4.70504 15.0185C3.56328 15.46 2.33046 15.614 1.11519 15.4668C0.890261 15.4386 0.662419 15.4876 0.469037 15.6059C0.275655 15.7242 0.128216 15.9047 0.0509041 16.1178C-0.0264075 16.3309 -0.0290006 16.5639 0.0435499 16.7787C0.1161 16.9935 0.259487 17.1772 0.450189 17.2998C2.54028 18.646 4.97387 19.3617 7.45996 19.3613C10.2792 19.393 13.0299 18.4921 15.2842 16.7988C17.5385 15.1054 19.1699 12.7145 19.9248 9.99801C20.2778 8.81464 20.4581 7.58648 20.46 6.35157C20.46 6.28614 20.46 6.21876 20.459 6.15138C20.9811 5.58831 21.3855 4.92668 21.6486 4.20527C21.9117 3.48387 22.0282 2.7172 21.9912 1.95021ZM18.6845 5.16212C18.5194 5.35746 18.4358 5.60891 18.4511 5.86427C18.4609 6.02927 18.4599 6.19527 18.4599 6.35157C18.4579 7.39511 18.3049 8.43287 18.0058 9.43263C17.3893 11.744 16.015 13.7817 14.1029 15.2192C12.1908 16.6568 9.85164 17.4111 7.45996 17.3613C6.60084 17.3616 5.74468 17.2606 4.90918 17.0606C5.97459 16.7172 6.97077 16.1879 7.85156 15.4971C8.01378 15.3693 8.13251 15.1945 8.19145 14.9967C8.25038 14.7988 8.24664 14.5875 8.18073 14.3918C8.11483 14.1961 7.98999 14.0257 7.82334 13.9038C7.65669 13.7819 7.4564 13.7145 7.24996 13.7109C6.41879 13.698 5.62509 13.363 5.03609 12.7764C5.18551 12.7481 5.33395 12.7129 5.48141 12.6709C5.69742 12.6094 5.88645 12.477 6.01807 12.295C6.14969 12.1131 6.21623 11.8921 6.20698 11.6677C6.19773 11.4433 6.11324 11.2285 5.96709 11.058C5.82095 10.8874 5.62167 10.7711 5.40133 10.7275C4.91887 10.6323 4.46487 10.427 4.07464 10.1277C3.68441 9.82845 3.36845 9.44321 3.15133 9.00196C3.33206 9.02662 3.51394 9.04194 3.69625 9.04786C3.91283 9.05113 4.12484 8.98543 4.30162 8.86026C4.47841 8.73509 4.6108 8.55694 4.67965 8.35157C4.74563 8.14433 4.74223 7.92123 4.66998 7.7161C4.59772 7.51096 4.46055 7.33499 4.27926 7.21485C3.83941 6.92182 3.4791 6.52427 3.23061 6.0578C2.98213 5.59134 2.85322 5.07052 2.85543 4.54201C2.85543 4.47561 2.85738 4.4092 2.86129 4.34377C5.10255 6.43402 8.00961 7.66621 11.0703 7.82326C11.2248 7.82934 11.3786 7.80024 11.5202 7.73816C11.6618 7.67607 11.7875 7.58262 11.8877 7.46486C11.9869 7.34596 12.0571 7.20566 12.0928 7.05501C12.1286 6.90437 12.1289 6.74748 12.0937 6.5967C12.0365 6.35806 12.0073 6.11357 12.0068 5.86818C12.0077 5.01271 12.3479 4.19254 12.9528 3.58764C13.5577 2.98274 14.3779 2.64251 15.2334 2.64161C15.6735 2.64043 16.1091 2.7305 16.5127 2.90615C16.9162 3.0818 17.279 3.3392 17.5781 3.66212C17.6934 3.7862 17.8386 3.87871 17.9998 3.93085C18.161 3.98299 18.3328 3.99303 18.499 3.96001C18.9097 3.88006 19.3146 3.7724 19.7109 3.63775C19.4406 4.19072 19.0952 4.70369 18.6845 5.16212Z" />
  </symbol>
  <symbol width="14" height="14" viewBox="0 0 14 14" fill="none" id='calendar' xmlns="http://www.w3.org/2000/svg">
    <path d="M7.00016 8.33334C7.13202 8.33334 7.26091 8.29424 7.37054 8.22098C7.48018 8.14773 7.56562 8.04361 7.61608 7.92179C7.66654 7.79997 7.67974 7.66593 7.65402 7.53661C7.6283 7.40729 7.5648 7.2885 7.47157 7.19527C7.37833 7.10203 7.25954 7.03854 7.13022 7.01281C7.0009 6.98709 6.86686 7.00029 6.74504 7.05075C6.62322 7.10121 6.5191 7.18666 6.44585 7.29629C6.3726 7.40592 6.3335 7.53482 6.3335 7.66667C6.3335 7.84348 6.40373 8.01305 6.52876 8.13807C6.65378 8.2631 6.82335 8.33334 7.00016 8.33334ZM10.3335 8.33334C10.4654 8.33334 10.5942 8.29424 10.7039 8.22098C10.8135 8.14773 10.899 8.04361 10.9494 7.92179C10.9999 7.79997 11.0131 7.66593 10.9874 7.53661C10.9616 7.40729 10.8981 7.2885 10.8049 7.19527C10.7117 7.10203 10.5929 7.03854 10.4636 7.01281C10.3342 6.98709 10.2002 7.00029 10.0784 7.05075C9.95656 7.10121 9.85244 7.18666 9.77918 7.29629C9.70593 7.40592 9.66683 7.53482 9.66683 7.66667C9.66683 7.84348 9.73707 8.01305 9.86209 8.13807C9.98712 8.2631 10.1567 8.33334 10.3335 8.33334ZM7.00016 11C7.13202 11 7.26091 10.9609 7.37054 10.8876C7.48018 10.8144 7.56562 10.7103 7.61608 10.5885C7.66654 10.4666 7.67974 10.3326 7.65402 10.2033C7.6283 10.074 7.5648 9.95517 7.47157 9.86193C7.37833 9.7687 7.25954 9.7052 7.13022 9.67948C7.0009 9.65376 6.86686 9.66696 6.74504 9.71742C6.62322 9.76787 6.5191 9.85332 6.44585 9.96296C6.3726 10.0726 6.3335 10.2015 6.3335 10.3333C6.3335 10.5101 6.40373 10.6797 6.52876 10.8047C6.65378 10.9298 6.82335 11 7.00016 11ZM10.3335 11C10.4654 11 10.5942 10.9609 10.7039 10.8876C10.8135 10.8144 10.899 10.7103 10.9494 10.5885C10.9999 10.4666 11.0131 10.3326 10.9874 10.2033C10.9616 10.074 10.8981 9.95517 10.8049 9.86193C10.7117 9.7687 10.5929 9.7052 10.4636 9.67948C10.3342 9.65376 10.2002 9.66696 10.0784 9.71742C9.95656 9.76787 9.85244 9.85332 9.77918 9.96296C9.70593 10.0726 9.66683 10.2015 9.66683 10.3333C9.66683 10.5101 9.73707 10.6797 9.86209 10.8047C9.98712 10.9298 10.1567 11 10.3335 11ZM3.66683 8.33334C3.79868 8.33334 3.92758 8.29424 4.03721 8.22098C4.14684 8.14773 4.23229 8.04361 4.28275 7.92179C4.33321 7.79997 4.34641 7.66593 4.32069 7.53661C4.29496 7.40729 4.23147 7.2885 4.13823 7.19527C4.045 7.10203 3.92621 7.03854 3.79689 7.01281C3.66757 6.98709 3.53352 7.00029 3.41171 7.05075C3.28989 7.10121 3.18577 7.18666 3.11252 7.29629C3.03926 7.40592 3.00016 7.53482 3.00016 7.66667C3.00016 7.84348 3.0704 8.01305 3.19543 8.13807C3.32045 8.2631 3.49002 8.33334 3.66683 8.33334ZM11.6668 1.66667H11.0002V1C11.0002 0.823192 10.9299 0.653622 10.8049 0.528598C10.6799 0.403574 10.5103 0.333336 10.3335 0.333336C10.1567 0.333336 9.98712 0.403574 9.86209 0.528598C9.73707 0.653622 9.66683 0.823192 9.66683 1V1.66667H4.3335V1C4.3335 0.823192 4.26326 0.653622 4.13823 0.528598C4.01321 0.403574 3.84364 0.333336 3.66683 0.333336C3.49002 0.333336 3.32045 0.403574 3.19543 0.528598C3.0704 0.653622 3.00016 0.823192 3.00016 1V1.66667H2.3335C1.80306 1.66667 1.29436 1.87738 0.919283 2.25246C0.54421 2.62753 0.333496 3.13624 0.333496 3.66667V11.6667C0.333496 12.1971 0.54421 12.7058 0.919283 13.0809C1.29436 13.456 1.80306 13.6667 2.3335 13.6667H11.6668C12.1973 13.6667 12.706 13.456 13.081 13.0809C13.4561 12.7058 13.6668 12.1971 13.6668 11.6667V3.66667C13.6668 3.13624 13.4561 2.62753 13.081 2.25246C12.706 1.87738 12.1973 1.66667 11.6668 1.66667V1.66667ZM12.3335 11.6667C12.3335 11.8435 12.2633 12.0131 12.1382 12.1381C12.0132 12.2631 11.8436 12.3333 11.6668 12.3333H2.3335C2.15669 12.3333 1.98712 12.2631 1.86209 12.1381C1.73707 12.0131 1.66683 11.8435 1.66683 11.6667V5.66667H12.3335V11.6667ZM12.3335 4.33334H1.66683V3.66667C1.66683 3.48986 1.73707 3.32029 1.86209 3.19526C1.98712 3.07024 2.15669 3 2.3335 3H11.6668C11.8436 3 12.0132 3.07024 12.1382 3.19526C12.2633 3.32029 12.3335 3.48986 12.3335 3.66667V4.33334ZM3.66683 11C3.79868 11 3.92758 10.9609 4.03721 10.8876C4.14684 10.8144 4.23229 10.7103 4.28275 10.5885C4.33321 10.4666 4.34641 10.3326 4.32069 10.2033C4.29496 10.074 4.23147 9.95517 4.13823 9.86193C4.045 9.7687 3.92621 9.7052 3.79689 9.67948C3.66757 9.65376 3.53352 9.66696 3.41171 9.71742C3.28989 9.76787 3.18577 9.85332 3.11252 9.96296C3.03926 10.0726 3.00016 10.2015 3.00016 10.3333C3.00016 10.5101 3.0704 10.6797 3.19543 10.8047C3.32045 10.9298 3.49002 11 3.66683 11Z" fill="#AD7CFE"/>
  </symbol>
  <symbol width="14" height="14" viewBox="0 0 14 14" fill="none" id='searchTime' xmlns="http://www.w3.org/2000/svg">
    <path d="M7.33317 0.333328C6.01463 0.333328 4.7257 0.724321 3.62937 1.45686C2.53304 2.18941 1.67856 3.2306 1.17398 4.44877C0.669392 5.66695 0.53737 7.00739 0.794605 8.3006C1.05184 9.5938 1.68678 10.7817 2.61913 11.714C3.55148 12.6464 4.73937 13.2813 6.03257 13.5386C7.32578 13.7958 8.66622 13.6638 9.8844 13.1592C11.1026 12.6546 12.1438 11.8001 12.8763 10.7038C13.6088 9.60747 13.9998 8.31854 13.9998 7C13.9998 6.12452 13.8274 5.25761 13.4924 4.44877C13.1573 3.63993 12.6663 2.90501 12.0472 2.28595C11.4282 1.66689 10.6932 1.17583 9.8844 0.840798C9.07556 0.505767 8.20865 0.333328 7.33317 0.333328V0.333328ZM7.33317 12.3333C6.27834 12.3333 5.24719 12.0205 4.37013 11.4345C3.49307 10.8485 2.80948 10.0155 2.40582 9.04097C2.00215 8.06643 1.89653 6.99408 2.10232 5.95951C2.30811 4.92495 2.81606 3.97464 3.56194 3.22876C4.30782 2.48288 5.25813 1.97493 6.29269 1.76914C7.32726 1.56335 8.39961 1.66897 9.37415 2.07264C10.3487 2.4763 11.1816 3.15989 11.7677 4.03695C12.3537 4.91402 12.6665 5.94516 12.6665 7C12.6665 8.41448 12.1046 9.77104 11.1044 10.7712C10.1042 11.7714 8.74766 12.3333 7.33317 12.3333V12.3333ZM9.39984 7.42L7.99984 6.61333V3.66666C7.99984 3.48985 7.9296 3.32028 7.80458 3.19526C7.67955 3.07023 7.50998 2.99999 7.33317 2.99999C7.15636 2.99999 6.98679 3.07023 6.86177 3.19526C6.73675 3.32028 6.66651 3.48985 6.66651 3.66666V7C6.66651 7 6.66651 7.05333 6.66651 7.08C6.67045 7.12593 6.68171 7.17094 6.69984 7.21333C6.71357 7.25288 6.73145 7.29087 6.75317 7.32666C6.77142 7.36455 6.79377 7.40033 6.81984 7.43333L6.92651 7.51999L6.98651 7.58L8.71984 8.58C8.82144 8.63758 8.93639 8.66747 9.05317 8.66666C9.20079 8.66769 9.34456 8.61971 9.46197 8.53022C9.57937 8.44074 9.66375 8.31482 9.70188 8.17222C9.74001 8.02961 9.72973 7.87838 9.67265 7.74225C9.61558 7.60611 9.51494 7.49277 9.38651 7.42H9.39984Z" fill="#AD7CFE"/>
  </symbol>
</svg>