<svg width="18" height="19" viewBox="0 0 18 19" fill="none" xmlns="http://www.w3.org/2000/svg">
<path fill-rule="evenodd" clip-rule="evenodd" d="M12.8561 1.89567H5.29611V1.26C5.29611 0.912245 5.01387 0.630005 4.66611 0.630005C4.31835 0.630005 4.03611 0.912245 4.03611 1.26V1.89567C3.20073 1.89567 2.39937 2.22768 1.80843 2.81799C1.21812 3.40893 0.886108 4.21029 0.886108 5.04567C0.886108 7.84224 0.886108 12.3291 0.886108 15.1257C0.886108 15.9611 1.21812 16.7624 1.80843 17.3527C2.39937 17.9437 3.20073 18.2757 4.03611 18.2757C6.83268 18.2757 11.3195 18.2757 14.1161 18.2757C14.9515 18.2757 15.7528 17.9437 16.3438 17.3527C16.9341 16.7624 17.2661 15.9611 17.2661 15.1257V5.04567C17.2661 4.21029 16.9341 3.40893 16.3438 2.81799C15.7528 2.22768 14.9515 1.89567 14.1161 1.89567V1.26C14.1161 0.912245 13.8339 0.630005 13.4861 0.630005C13.1383 0.630005 12.8561 0.912245 12.8561 1.26V1.89567ZM16.0061 6.93001V15.1257C16.0061 15.6272 15.807 16.1078 15.4523 16.4619C15.0983 16.8166 14.6176 17.0157 14.1161 17.0157H4.03611C3.53463 17.0157 3.05394 16.8166 2.69988 16.4619C2.34519 16.1078 2.14611 15.6272 2.14611 15.1257V6.93001H16.0061ZM5.29611 3.15567V3.78C5.29611 4.12776 5.01387 4.41 4.66611 4.41C4.31835 4.41 4.03611 4.12776 4.03611 3.78V3.15567C3.53463 3.15567 3.05394 3.35475 2.69988 3.70944C2.34519 4.0635 2.14611 4.54419 2.14611 5.04567V5.67H16.0061V5.04567C16.0061 4.54419 15.807 4.0635 15.4523 3.70944C15.0983 3.35475 14.6176 3.15567 14.1161 3.15567V3.78C14.1161 4.12776 13.8339 4.41 13.4861 4.41C13.1383 4.41 12.8561 4.12776 12.8561 3.78V3.15567H5.29611Z" fill="#AD7CFE"/>
<path fill-rule="evenodd" clip-rule="evenodd" d="M4.6661 10.08H5.9261C6.27386 10.08 6.5561 9.79777 6.5561 9.45001C6.5561 9.10225 6.27386 8.82001 5.9261 8.82001H4.6661C4.31834 8.82001 4.0361 9.10225 4.0361 9.45001C4.0361 9.79777 4.31834 10.08 4.6661 10.08Z" fill="#AD7CFE"/>
<path fill-rule="evenodd" clip-rule="evenodd" d="M4.6661 12.6H5.9261C6.27386 12.6 6.5561 12.3178 6.5561 11.97C6.5561 11.6222 6.27386 11.34 5.9261 11.34H4.6661C4.31834 11.34 4.0361 11.6222 4.0361 11.97C4.0361 12.3178 4.31834 12.6 4.6661 12.6Z" fill="#AD7CFE"/>
<path fill-rule="evenodd" clip-rule="evenodd" d="M4.6661 15.12H5.9261C6.27386 15.12 6.5561 14.8378 6.5561 14.49C6.5561 14.1422 6.27386 13.86 5.9261 13.86H4.6661C4.31834 13.86 4.0361 14.1422 4.0361 14.49C4.0361 14.8378 4.31834 15.12 4.6661 15.12Z" fill="#AD7CFE"/>
<path fill-rule="evenodd" clip-rule="evenodd" d="M8.4461 10.08H9.7061C10.0539 10.08 10.3361 9.79777 10.3361 9.45001C10.3361 9.10225 10.0539 8.82001 9.7061 8.82001H8.4461C8.09834 8.82001 7.8161 9.10225 7.8161 9.45001C7.8161 9.79777 8.09834 10.08 8.4461 10.08Z" fill="#AD7CFE"/>
<path fill-rule="evenodd" clip-rule="evenodd" d="M8.4461 12.6H9.7061C10.0539 12.6 10.3361 12.3178 10.3361 11.97C10.3361 11.6222 10.0539 11.34 9.7061 11.34H8.4461C8.09834 11.34 7.8161 11.6222 7.8161 11.97C7.8161 12.3178 8.09834 12.6 8.4461 12.6Z" fill="#AD7CFE"/>
<path fill-rule="evenodd" clip-rule="evenodd" d="M12.2261 12.6H13.4861C13.8339 12.6 14.1161 12.3178 14.1161 11.97C14.1161 11.6222 13.8339 11.34 13.4861 11.34H12.2261C11.8783 11.34 11.5961 11.6222 11.5961 11.97C11.5961 12.3178 11.8783 12.6 12.2261 12.6Z" fill="#AD7CFE"/>
<path fill-rule="evenodd" clip-rule="evenodd" d="M8.4461 15.12H9.7061C10.0539 15.12 10.3361 14.8378 10.3361 14.49C10.3361 14.1422 10.0539 13.86 9.7061 13.86H8.4461C8.09834 13.86 7.8161 14.1422 7.8161 14.49C7.8161 14.8378 8.09834 15.12 8.4461 15.12Z" fill="#AD7CFE"/>
<path fill-rule="evenodd" clip-rule="evenodd" d="M12.2261 15.12H13.4861C13.8339 15.12 14.1161 14.8378 14.1161 14.49C14.1161 14.1422 13.8339 13.86 13.4861 13.86H12.2261C11.8783 13.86 11.5961 14.1422 11.5961 14.49C11.5961 14.8378 11.8783 15.12 12.2261 15.12Z" fill="#AD7CFE"/>
<path fill-rule="evenodd" clip-rule="evenodd" d="M12.2261 10.08H13.4861C13.8339 10.08 14.1161 9.79777 14.1161 9.45001C14.1161 9.10225 13.8339 8.82001 13.4861 8.82001H12.2261C11.8783 8.82001 11.5961 9.10225 11.5961 9.45001C11.5961 9.79777 11.8783 10.08 12.2261 10.08Z" fill="#AD7CFE"/>
</svg>
