<svg width="24" height="24" viewBox="0 0 24 24" fill="none" xmlns="http://www.w3.org/2000/svg">
<g clip-path="url(#clip0_8_31)">
<path d="M12.2461 2C10.0588 2.00248 7.96184 2.87247 6.4152 4.41911C4.86857 5.96575 3.99858 8.06273 3.99609 10.25C3.99609 17.3094 11.4961 22.6437 11.8148 22.8687C11.9426 22.9538 12.0926 22.9992 12.2461 22.9992C12.3996 22.9992 12.5496 22.9538 12.6773 22.8687C12.9961 22.6437 20.4961 17.3094 20.4961 10.25C20.4936 8.06273 19.6236 5.96575 18.077 4.41911C16.5303 2.87247 14.4334 2.00248 12.2461 2ZM12.2461 7.25C12.8394 7.25 13.4195 7.42595 13.9128 7.75559C14.4062 8.08524 14.7907 8.55377 15.0177 9.10195C15.2448 9.65013 15.3042 10.2533 15.1884 10.8353C15.0727 11.4172 14.787 11.9518 14.3674 12.3713C13.9479 12.7909 13.4133 13.0766 12.8314 13.1924C12.2494 13.3081 11.6462 13.2487 11.098 13.0216C10.5499 12.7946 10.0813 12.4101 9.75169 11.9167C9.42204 11.4234 9.24609 10.8433 9.24609 10.25C9.24609 9.45435 9.56216 8.69129 10.1248 8.12868C10.6874 7.56607 11.4504 7.25 12.2461 7.25Z" fill="#AD7CFE"/>
</g>
<defs>
<clipPath id="clip0_8_31">
<rect width="24" height="24" fill="white" transform="translate(-0.00390625)"/>
</clipPath>
</defs>
</svg>
