<svg width="24" height="24" viewBox="0 0 24 24" fill="none" xmlns="http://www.w3.org/2000/svg">
<path d="M11.7461 2C6.36156 2 1.99609 6.36547 1.99609 11.75C1.99609 17.1345 6.36156 21.5 11.7461 21.5C17.1306 21.5 21.4961 17.1345 21.4961 11.75C21.4961 6.36547 17.1306 2 11.7461 2ZM16.2461 13.25H11.7461C11.5472 13.25 11.3564 13.171 11.2158 13.0303C11.0751 12.8897 10.9961 12.6989 10.9961 12.5V5.75C10.9961 5.55109 11.0751 5.36032 11.2158 5.21967C11.3564 5.07902 11.5472 5 11.7461 5C11.945 5 12.1358 5.07902 12.2764 5.21967C12.4171 5.36032 12.4961 5.55109 12.4961 5.75V11.75H16.2461C16.445 11.75 16.6358 11.829 16.7764 11.9697C16.9171 12.1103 16.9961 12.3011 16.9961 12.5C16.9961 12.6989 16.9171 12.8897 16.7764 13.0303C16.6358 13.171 16.445 13.25 16.2461 13.25Z" fill="#AD7CFE"/>
</svg>
