<svg width="44" height="27" viewBox="0 0 44 27" fill="none" xmlns="http://www.w3.org/2000/svg">
<path d="M0 4.375C0 1.96191 1.97313 0 4.4 0H17.6H20.9H22H39.6C42.0269 0 44 1.96191 44 4.375V21.875C44 24.2881 42.0269 26.25 39.6 26.25H22H20.9H17.6H4.4C1.97313 26.25 0 24.2881 0 21.875V4.375ZM22 4.375V21.875H39.6V4.375H22ZM12.2581 7.64941C12.0381 7.15723 11.5431 6.83594 11 6.83594C10.4569 6.83594 9.96187 7.15723 9.74187 7.64941L5.34188 17.4932C5.0325 18.1836 5.34875 18.9902 6.04313 19.2979C6.7375 19.6055 7.54875 19.291 7.85813 18.6006L8.47 17.2266H13.53L14.1419 18.6006C14.4513 19.291 15.2625 19.5986 15.9569 19.2979C16.6513 18.9971 16.9606 18.1836 16.6581 17.4932L12.2581 7.64941ZM11 11.5664L12.3063 14.4922H9.69375L11 11.5664ZM30.8 6.83594C31.5563 6.83594 32.175 7.45117 32.175 8.20312V8.47656H35.2H36.3C37.0563 8.47656 37.675 9.0918 37.675 9.84375C37.675 10.5957 37.0563 11.2109 36.3 11.2109H36.1625L36.0525 11.5186C35.4406 13.1865 34.5125 14.7041 33.33 15.9893C33.3919 16.0303 33.4538 16.0645 33.5156 16.0986L34.815 16.8711C35.4681 17.2607 35.6744 18.1016 35.2894 18.7441C34.9044 19.3867 34.0519 19.5986 33.4056 19.2158L32.1063 18.4434C31.7969 18.2588 31.5013 18.0674 31.2056 17.8623C30.4769 18.375 29.7 18.8193 28.8681 19.1885L28.6206 19.2979C27.9263 19.6055 27.115 19.291 26.8056 18.6006C26.4963 17.9102 26.8125 17.1035 27.5069 16.7959L27.7544 16.6865C28.1944 16.4883 28.6206 16.2695 29.0263 16.0166L28.1875 15.1826C27.6513 14.6494 27.6513 13.7812 28.1875 13.248C28.7238 12.7148 29.5969 12.7148 30.1331 13.248L31.1369 14.2461L31.1712 14.2803C32.0238 13.3848 32.7181 12.3457 33.22 11.2041H30.8H25.85C25.0938 11.2041 24.475 10.5889 24.475 9.83691C24.475 9.08496 25.0938 8.46973 25.85 8.46973H29.425V8.19629C29.425 7.44434 30.0438 6.8291 30.8 6.8291V6.83594Z" fill="white"/>
</svg>
