<svg width="14" height="14" viewBox="0 0 14 14" fill="none" xmlns="http://www.w3.org/2000/svg">
<path d="M7.00016 8.33334C7.13202 8.33334 7.26091 8.29424 7.37054 8.22098C7.48018 8.14773 7.56562 8.04361 7.61608 7.92179C7.66654 7.79997 7.67974 7.66593 7.65402 7.53661C7.6283 7.40729 7.5648 7.2885 7.47157 7.19527C7.37833 7.10203 7.25954 7.03854 7.13022 7.01281C7.0009 6.98709 6.86686 7.00029 6.74504 7.05075C6.62322 7.10121 6.5191 7.18666 6.44585 7.29629C6.3726 7.40592 6.3335 7.53482 6.3335 7.66667C6.3335 7.84348 6.40373 8.01305 6.52876 8.13807C6.65378 8.2631 6.82335 8.33334 7.00016 8.33334ZM10.3335 8.33334C10.4654 8.33334 10.5942 8.29424 10.7039 8.22098C10.8135 8.14773 10.899 8.04361 10.9494 7.92179C10.9999 7.79997 11.0131 7.66593 10.9874 7.53661C10.9616 7.40729 10.8981 7.2885 10.8049 7.19527C10.7117 7.10203 10.5929 7.03854 10.4636 7.01281C10.3342 6.98709 10.2002 7.00029 10.0784 7.05075C9.95656 7.10121 9.85244 7.18666 9.77918 7.29629C9.70593 7.40592 9.66683 7.53482 9.66683 7.66667C9.66683 7.84348 9.73707 8.01305 9.86209 8.13807C9.98712 8.2631 10.1567 8.33334 10.3335 8.33334ZM7.00016 11C7.13202 11 7.26091 10.9609 7.37054 10.8876C7.48018 10.8144 7.56562 10.7103 7.61608 10.5885C7.66654 10.4666 7.67974 10.3326 7.65402 10.2033C7.6283 10.074 7.5648 9.95517 7.47157 9.86193C7.37833 9.7687 7.25954 9.7052 7.13022 9.67948C7.0009 9.65376 6.86686 9.66696 6.74504 9.71742C6.62322 9.76787 6.5191 9.85332 6.44585 9.96296C6.3726 10.0726 6.3335 10.2015 6.3335 10.3333C6.3335 10.5101 6.40373 10.6797 6.52876 10.8047C6.65378 10.9298 6.82335 11 7.00016 11ZM10.3335 11C10.4654 11 10.5942 10.9609 10.7039 10.8876C10.8135 10.8144 10.899 10.7103 10.9494 10.5885C10.9999 10.4666 11.0131 10.3326 10.9874 10.2033C10.9616 10.074 10.8981 9.95517 10.8049 9.86193C10.7117 9.7687 10.5929 9.7052 10.4636 9.67948C10.3342 9.65376 10.2002 9.66696 10.0784 9.71742C9.95656 9.76787 9.85244 9.85332 9.77918 9.96296C9.70593 10.0726 9.66683 10.2015 9.66683 10.3333C9.66683 10.5101 9.73707 10.6797 9.86209 10.8047C9.98712 10.9298 10.1567 11 10.3335 11ZM3.66683 8.33334C3.79868 8.33334 3.92758 8.29424 4.03721 8.22098C4.14684 8.14773 4.23229 8.04361 4.28275 7.92179C4.33321 7.79997 4.34641 7.66593 4.32069 7.53661C4.29496 7.40729 4.23147 7.2885 4.13823 7.19527C4.045 7.10203 3.92621 7.03854 3.79689 7.01281C3.66757 6.98709 3.53352 7.00029 3.41171 7.05075C3.28989 7.10121 3.18577 7.18666 3.11252 7.29629C3.03926 7.40592 3.00016 7.53482 3.00016 7.66667C3.00016 7.84348 3.0704 8.01305 3.19543 8.13807C3.32045 8.2631 3.49002 8.33334 3.66683 8.33334ZM11.6668 1.66667H11.0002V1C11.0002 0.823192 10.9299 0.653622 10.8049 0.528598C10.6799 0.403574 10.5103 0.333336 10.3335 0.333336C10.1567 0.333336 9.98712 0.403574 9.86209 0.528598C9.73707 0.653622 9.66683 0.823192 9.66683 1V1.66667H4.3335V1C4.3335 0.823192 4.26326 0.653622 4.13823 0.528598C4.01321 0.403574 3.84364 0.333336 3.66683 0.333336C3.49002 0.333336 3.32045 0.403574 3.19543 0.528598C3.0704 0.653622 3.00016 0.823192 3.00016 1V1.66667H2.3335C1.80306 1.66667 1.29436 1.87738 0.919283 2.25246C0.54421 2.62753 0.333496 3.13624 0.333496 3.66667V11.6667C0.333496 12.1971 0.54421 12.7058 0.919283 13.0809C1.29436 13.456 1.80306 13.6667 2.3335 13.6667H11.6668C12.1973 13.6667 12.706 13.456 13.081 13.0809C13.4561 12.7058 13.6668 12.1971 13.6668 11.6667V3.66667C13.6668 3.13624 13.4561 2.62753 13.081 2.25246C12.706 1.87738 12.1973 1.66667 11.6668 1.66667V1.66667ZM12.3335 11.6667C12.3335 11.8435 12.2633 12.0131 12.1382 12.1381C12.0132 12.2631 11.8436 12.3333 11.6668 12.3333H2.3335C2.15669 12.3333 1.98712 12.2631 1.86209 12.1381C1.73707 12.0131 1.66683 11.8435 1.66683 11.6667V5.66667H12.3335V11.6667ZM12.3335 4.33334H1.66683V3.66667C1.66683 3.48986 1.73707 3.32029 1.86209 3.19526C1.98712 3.07024 2.15669 3 2.3335 3H11.6668C11.8436 3 12.0132 3.07024 12.1382 3.19526C12.2633 3.32029 12.3335 3.48986 12.3335 3.66667V4.33334ZM3.66683 11C3.79868 11 3.92758 10.9609 4.03721 10.8876C4.14684 10.8144 4.23229 10.7103 4.28275 10.5885C4.33321 10.4666 4.34641 10.3326 4.32069 10.2033C4.29496 10.074 4.23147 9.95517 4.13823 9.86193C4.045 9.7687 3.92621 9.7052 3.79689 9.67948C3.66757 9.65376 3.53352 9.66696 3.41171 9.71742C3.28989 9.76787 3.18577 9.85332 3.11252 9.96296C3.03926 10.0726 3.00016 10.2015 3.00016 10.3333C3.00016 10.5101 3.0704 10.6797 3.19543 10.8047C3.32045 10.9298 3.49002 11 3.66683 11Z" fill="#AD7CFE"/>
</svg>
