<svg width="107" height="62" viewBox="0 0 107 62" fill="none" xmlns="http://www.w3.org/2000/svg">
<g filter="url(#filter0_d_293_92)">
<path d="M15.9983 16.7299L23.528 3.73897C24.8694 1.42468 27.3419 0 30.0168 0L77.9112 0C80.7547 0 83.3536 1.60807 84.6227 4.15266L90.7907 16.5197C91.4052 17.7519 92.6104 18.5814 93.9808 18.7154L98.7545 19.1823C100.645 19.3672 102.145 20.8564 102.343 22.7456L102.575 24.9546C102.802 27.117 101.107 29 98.9324 29C96.9094 29 95.2695 30.6399 95.2695 32.6629V51.75V58.5C95.2695 60.7091 93.4787 62.5 91.2695 62.5H82.9329C81.3451 62.5 80.0579 61.2128 80.0579 59.625C80.0579 58.0372 78.7708 56.75 77.1829 56.75L28.5702 56.75C26.9824 56.75 25.6952 58.0372 25.6952 59.625C25.6952 61.2128 24.408 62.5 22.8202 62.5H15.2317C13.0226 62.5 11.2317 60.7091 11.2317 58.5L11.2317 32.4266C11.2317 30.5341 9.69761 29 7.80518 29C5.77119 29 4.18495 27.2385 4.39735 25.2156L4.65754 22.7376C4.85553 20.852 6.35012 19.3644 8.23666 19.1753L12.9366 18.7041C14.215 18.5759 15.354 17.8415 15.9983 16.7299Z" fill="#AD7CFE"/>
</g>
<path d="M34 30.995C34 33.7546 22.7614 33.4934 20 33.4934C17.2386 33.4934 15 31.2563 15 28.4967C15 25.7371 17.2386 23.5 20 23.5C22.7614 23.5 34 28.2354 34 30.995Z" fill="#C5A2FF"/>
<path d="M73 30.995C73 33.7546 84.2386 33.4934 87 33.4934C89.7614 33.4934 92 31.2563 92 28.4967C92 25.7371 89.7614 23.5 87 23.5C84.2386 23.5 73 28.2354 73 30.995Z" fill="#C5A2FF"/>
<path d="M19.5707 42.005C19.817 40.2808 21.2938 39 23.0355 39L83.9645 39C85.7062 39 87.183 40.2808 87.4293 42.005L88.4293 49.005C88.7305 51.1136 87.0944 53 84.9645 53L22.0355 53C19.9056 53 18.2695 51.1135 18.5707 49.005L19.5707 42.005Z" fill="#8D52ED"/>
<path d="M27.1048 6.14288L21.6827 18.3929C21.2437 19.3846 21.9698 20.5 23.0543 20.5L83.411 20.5C84.5043 20.5 85.2303 19.3679 84.7742 18.3742L79.1513 6.12425C78.9067 5.59149 78.3743 5.25 77.7881 5.25L28.4764 5.25C27.8828 5.25 27.3451 5.60006 27.1048 6.14288Z" fill="#8D52ED"/>
<defs>
<filter id="filter0_d_293_92" x="0.378418" y="0" width="106.217" height="70.5" filterUnits="userSpaceOnUse" color-interpolation-filters="sRGB">
<feFlood flood-opacity="0" result="BackgroundImageFix"/>
<feColorMatrix in="SourceAlpha" type="matrix" values="0 0 0 0 0 0 0 0 0 0 0 0 0 0 0 0 0 0 127 0" result="hardAlpha"/>
<feOffset dy="4"/>
<feGaussianBlur stdDeviation="2"/>
<feComposite in2="hardAlpha" operator="out"/>
<feColorMatrix type="matrix" values="0 0 0 0 0 0 0 0 0 0 0 0 0 0 0 0 0 0 0.25 0"/>
<feBlend mode="normal" in2="BackgroundImageFix" result="effect1_dropShadow_293_92"/>
<feBlend mode="normal" in="SourceGraphic" in2="effect1_dropShadow_293_92" result="shape"/>
</filter>
</defs>
</svg>
