<svg width="99" height="62" viewBox="0 0 99 62" fill="none" xmlns="http://www.w3.org/2000/svg">
<path d="M11.9983 16.7299L19.528 3.73897C20.8694 1.42468 23.3419 0 26.0168 0L73.9112 0C76.7547 0 79.3536 1.60807 80.6227 4.15266L86.7907 16.5197C87.4052 17.7519 88.6104 18.5814 89.9808 18.7154L94.7545 19.1823C96.6452 19.3672 98.1449 20.8564 98.3433 22.7456L98.5752 24.9546C98.8023 27.117 97.1067 29 94.9324 29C92.9094 29 91.2695 30.6399 91.2695 32.6629V51.75V58.5C91.2695 60.7091 89.4787 62.5 87.2695 62.5H78.9329C77.3451 62.5 76.0579 61.2128 76.0579 59.625C76.0579 58.0372 74.7708 56.75 73.1829 56.75L24.5702 56.75C22.9824 56.75 21.6952 58.0372 21.6952 59.625C21.6952 61.2128 20.408 62.5 18.8202 62.5H11.2317C9.0226 62.5 7.23174 60.7091 7.23174 58.5L7.23174 32.4266C7.23174 30.5341 5.69761 29 3.80518 29C1.77119 29 0.184954 27.2385 0.397352 25.2156L0.657538 22.7376C0.855525 20.852 2.35012 19.3644 4.23666 19.1753L8.93657 18.7041C10.215 18.5759 11.354 17.8415 11.9983 16.7299Z" fill="#8D52ED"/>
<path d="M30 30.995C30 33.7546 18.7614 33.4934 16 33.4934C13.2386 33.4934 11 31.2563 11 28.4967C11 25.7371 13.2386 23.5 16 23.5C18.7614 23.5 30 28.2354 30 30.995Z" fill="#C5A2FF"/>
<path d="M69 30.995C69 33.7546 80.2386 33.4934 83 33.4934C85.7614 33.4934 88 31.2563 88 28.4967C88 25.7371 85.7614 23.5 83 23.5C80.2386 23.5 69 28.2354 69 30.995Z" fill="#C5A2FF"/>
<path d="M15.5707 42.005C15.817 40.2808 17.2938 39 19.0355 39L79.9645 39C81.7062 39 83.183 40.2808 83.4293 42.005L84.4293 49.005C84.7305 51.1136 83.0944 53 80.9645 53L18.0355 53C15.9056 53 14.2695 51.1135 14.5707 49.005L15.5707 42.005Z" fill="#AD7CFE"/>
<path d="M23.1048 6.14288L17.6827 18.3929C17.2437 19.3846 17.9698 20.5 19.0543 20.5L79.411 20.5C80.5043 20.5 81.2303 19.3679 80.7742 18.3742L75.1513 6.12425C74.9067 5.59149 74.3743 5.25 73.7881 5.25L24.4764 5.25C23.8828 5.25 23.3451 5.60006 23.1048 6.14288Z" fill="#AD7CFE"/>
</svg>
