<svg width="417" height="151" viewBox="0 0 417 151" fill="none" xmlns="http://www.w3.org/2000/svg">
<path d="M268.734 136.97L208.862 136.117" stroke="#AD7CFE" stroke-width="2.548" stroke-linecap="round"/>
<path d="M264.924 136.059L238.002 147.677" stroke="black" stroke-width="2.548" stroke-linecap="round"/>
<path d="M212.671 137.029L239.593 125.41" stroke="#8D52ED" stroke-width="2.548" stroke-linecap="round"/>
<path d="M212.695 135.315L239.276 147.695" stroke="#8D52ED" stroke-width="2.548" stroke-linecap="round"/>
<path d="M264.9 137.772L238.319 125.392" stroke="#8D52ED" stroke-width="2.548" stroke-linecap="round"/>
<path d="M264.924 136.059L238.002 147.677" stroke="#8D52ED" stroke-width="2.548" stroke-linecap="round"/>
<path d="M245.645 147.786L231.633 147.586" stroke="#AD7CFE" stroke-width="2.548" stroke-linecap="round"/>
<path d="M245.963 125.501L231.95 125.301" stroke="#AD7CFE" stroke-width="2.548" stroke-linecap="round"/>
<path d="M276.198 62.8363L277.358 123.977C277.358 123.977 298.214 119.984 311.681 119.728C325.149 119.473 346.142 122.672 346.142 122.672L344.981 61.5311L276.198 62.8363Z" fill="#8D52ED"/>
<path d="M49.0828 72.943L52.1516 134.018C52.1516 134.018 72.8727 129.375 86.3258 128.699C99.7789 128.023 120.861 130.565 120.861 130.565L117.792 69.4905L49.0828 72.943Z" fill="#8D52ED"/>
<path d="M309.557 74.9454L310.186 108.063" stroke="#C5A2FF" stroke-width="5.096" stroke-linecap="round"/>
<path d="M314.991 92.6815C312.726 92.7245 308.198 92.8104 304.801 92.8749" stroke="#47385F" stroke-width="6.1" stroke-linecap="round"/>
<path d="M317.442 87.5382C314.045 87.6027 307.252 87.7316 302.157 87.8283" stroke="#47385F" stroke-width="6.1" stroke-linecap="round"/>
<path d="M317.345 82.4432C313.948 82.5077 307.155 82.6366 302.06 82.7333" stroke="#47385F" stroke-width="6.1" stroke-linecap="round"/>
<path d="M317.249 77.348C313.852 77.4125 307.058 77.5414 301.963 77.6381" stroke="#47385F" stroke-width="6.1" stroke-linecap="round"/>
<circle cx="12.74" cy="12.74" r="12.74" transform="matrix(-0.99982 0.0189721 0.0189721 0.99982 322.73 97.6317)" fill="#AD7CFE"/>
<path d="M317.684 100.276C319.414 101.942 322.88 105.529 322.996 111.643" stroke="#C5A2FF" stroke-width="5.096" stroke-linecap="round"/>
<circle cx="5.096" cy="5.096" r="5.096" transform="matrix(-0.99982 0.0189721 0.0189721 0.99982 315.233 105.419)" fill="#9A5CFF"/>
<path d="M84.0707 86.2635L85.6118 119.352" stroke="#C5A2FF" stroke-width="5.096" stroke-linecap="round"/>
<path d="M89.9911 103.843C87.7287 103.948 83.2038 104.159 79.8101 104.317" stroke="#47385F" stroke-width="6.1" stroke-linecap="round"/>
<path d="M92.2993 98.6342C88.9057 98.7923 82.1184 99.1084 77.0279 99.3455" stroke="#47385F" stroke-width="6.1" stroke-linecap="round"/>
<path d="M92.0621 93.5438C88.6685 93.7019 81.8812 94.018 76.7907 94.2551" stroke="#47385F" stroke-width="6.1" stroke-linecap="round"/>
<path d="M91.8251 88.4532C88.4314 88.6113 81.6441 88.9274 76.5536 89.1645" stroke="#47385F" stroke-width="6.1" stroke-linecap="round"/>
<circle cx="12.74" cy="12.74" r="12.74" transform="matrix(-0.998917 0.0465271 0.0465271 0.998917 97.864 108.578)" fill="#AD7CFE"/>
<path d="M92.892 111.36C94.6678 112.978 98.2314 116.468 98.5159 122.577" stroke="#C5A2FF" stroke-width="5.096" stroke-linecap="round"/>
<circle cx="5.096" cy="5.096" r="5.096" transform="matrix(-0.998917 0.0465271 0.0465271 0.998917 90.5839 116.569)" fill="#9A5CFF"/>
<path d="M202.692 9.38097C253.695 2.99811 306.561 6.19093 335.924 7.43547L340.71 7.55891C340.812 7.44851 339.688 9.06694 334.378 16.424C338.491 19.6318 342.73 23.7869 346.735 28.176C359.881 42.5806 370.368 60.097 371.373 79.5722C371.412 80.3161 371.438 80.9697 371.461 81.5214C372.577 108.878 369.202 112.815 362.342 123.663L345.158 124.364C343.63 124.427 342.841 119.677 342.696 118.727L342.51 114.161C342.211 106.824 341.629 99.2838 337.909 92.9533C333.019 84.632 323.913 76.1413 309.107 76.7454C295.244 77.311 286.744 85.4266 282.033 93.6025C277.697 101.126 277.637 110.147 277.991 118.823L278.211 124.227C278.284 126.009 277.047 126.931 276.419 127.169L123.03 133.428C118.956 133.594 118.011 130.232 118.048 128.531L117.412 112.937C116.191 103.849 107.83 85.9145 84.1535 86.8806C60.4768 87.8467 52.7562 106.438 52.8102 115.573C52.5942 118.144 52.5033 119.824 52.4913 121.467C52.4642 125.153 52.1402 130.172 52.3489 133.852C52.4878 136.3 51.0743 136.364 48.625 136.464L12.9201 137.921C11.1752 136.823 6.12305 129.145 4.52279 127.425C2.92254 125.706 3.34513 124.605 3.75648 124.269L7.57529 124.113C10.4122 118.642 8.44571 114.196 7.10783 112.657L3.92548 112.787C-6.65998 99.5218 16.7942 82.4703 32.1138 75.1687C51.1028 66.1182 71.5709 61.6906 102.014 55.8692C118.462 41.3046 144.412 28.2027 164.086 19.773C176.398 14.4976 189.401 11.0443 202.692 9.38097Z" fill="#AD7CFE"/>
<path d="M182.511 20.9241C230.697 8.1545 294.452 11.855 320.307 15.3015C341.272 29.1438 349.482 42.8386 350.965 47.9558L231.627 52.8252L112.289 57.6946C116.952 52.1916 137.525 37.1332 182.511 20.9241Z" fill="#C5A2FF"/>
<path d="M11.3837 95.9567C11.1294 100.872 29.9677 101.38 34.5905 101.619C39.2133 101.859 43.1671 98.0677 43.4214 93.1523C43.6757 88.2368 40.1343 84.0582 35.5115 83.819C30.8886 83.5798 11.638 91.0413 11.3837 95.9567Z" fill="#9A5CFF"/>
<path d="M102.631 57.7452C87.9188 40.9197 65.0149 10.8278 17.5006 2.56607" stroke="#AD7CFE" stroke-width="5.1" stroke-linecap="round"/>
<path d="M44.3306 63.5087C44.0414 61.7544 43.9263 59.6933 42.7867 58.2523C41.2977 56.3696 37.9811 56.1488 35.3725 56.0891C32.9867 56.0345 31.046 56.2889 33.1675 53.763C35.2615 51.2699 38.439 49.255 40.0947 46.537C41.0076 45.0385 41.3907 42.915 40.0641 41.7756C38.0624 40.0565 33.771 41.5035 31.1328 41.7173C24.1042 42.2867 27.9046 32.726 29.5388 29.2178" stroke="#AD7CFE" stroke-width="2.548" stroke-linecap="round"/>
<path d="M44.3306 63.5087C44.0414 61.7544 43.9263 59.6933 42.7867 58.2523C41.2977 56.3696 37.9811 56.1488 35.3725 56.0891C32.9867 56.0345 31.046 56.2889 33.1675 53.763C35.2615 51.2699 38.439 49.255 40.0947 46.537C41.0076 45.0385 41.3907 42.915 40.0641 41.7756C38.0624 40.0565 33.771 41.5035 31.1328 41.7173C24.1042 42.2867 27.9046 32.726 29.5388 29.2178" stroke="black" stroke-opacity="0.4" stroke-width="2.548" stroke-linecap="round"/>
<path d="M34.0946 67.3759C29.6695 64.105 24.7785 60.9371 19.2185 59.9104C17.6234 59.6158 14.8959 59.3296 13.9754 61.2176C13.4859 62.2216 13.7874 64.111 15.1217 64.3216C18.5596 64.864 19.7981 59.0965 19.7593 56.9334C19.6975 53.482 18.4682 50.2403 16.7678 47.3359" stroke="#AD7CFE" stroke-width="2.548" stroke-linecap="round"/>
<path d="M34.0946 67.3759C29.6695 64.105 24.7785 60.9371 19.2185 59.9104C17.6234 59.6158 14.8959 59.3296 13.9754 61.2176C13.4859 62.2216 13.7874 64.111 15.1217 64.3216C18.5596 64.864 19.7981 59.0965 19.7593 56.9334C19.6975 53.482 18.4682 50.2403 16.7678 47.3359" stroke="black" stroke-opacity="0.4" stroke-width="2.548" stroke-linecap="round"/>
<path d="M52.7071 60.3437C52.1488 56.9736 53.0739 53.2383 54.0236 49.7945C54.6516 47.517 55.319 44.9869 56.7392 42.8685" stroke="#AD7CFE" stroke-width="2.548" stroke-linecap="round"/>
<path d="M52.7071 60.3437C52.1488 56.9736 53.0739 53.2383 54.0236 49.7945C54.6516 47.517 55.319 44.9869 56.7392 42.8685" stroke="black" stroke-opacity="0.4" stroke-width="2.548" stroke-linecap="round"/>
<circle cx="29.2752" cy="29.2752" r="27.2752" transform="matrix(1 -1.13082e-09 -1.13082e-09 -1 56 151.55)" fill="#C5A2FF"/>
<circle cx="29.2752" cy="29.2752" r="27.2752" transform="matrix(1 -1.13082e-09 -1.13082e-09 -1 56 151.55)" stroke="#9A5CFF" stroke-width="4"/>
<circle cx="29.2752" cy="29.2752" r="27.2752" transform="matrix(1 -1.13082e-09 -1.13082e-09 -1 56 151.55)" stroke="black" stroke-opacity="0.2" stroke-width="4"/>
<path d="M389.06 88.6173C393.026 87.1718 397.413 89.2155 398.859 93.182L414.126 135.077C415.572 139.043 413.528 143.431 409.561 144.876L395.684 149.933C391.717 151.379 387.33 149.335 385.885 145.369L370.617 103.474C369.172 99.5072 371.216 95.12 375.182 93.6745L389.06 88.6173Z" fill="#9A5CFF"/>
<path d="M389.06 88.6173C393.026 87.1718 397.413 89.2155 398.859 93.182L414.126 135.077C415.572 139.043 413.528 143.431 409.561 144.876L395.684 149.933C391.717 151.379 387.33 149.335 385.885 145.369L370.617 103.474C369.172 99.5072 371.216 95.12 375.182 93.6745L389.06 88.6173Z" fill="black" fill-opacity="0.2"/>
</svg>
