<svg width="24" height="24" viewBox="0 0 24 24" fill="none" xmlns="http://www.w3.org/2000/svg">
<path d="M17.457 10.8469L8.45664 3.34658C8.15068 3.09349 7.75689 2.97196 7.3615 3.00861C6.96612 3.04525 6.60137 3.23708 6.34713 3.54209C6.09289 3.84711 5.96988 4.24044 6.00504 4.63595C6.04019 5.03147 6.23065 5.39694 6.53469 5.65233L14.1522 11.9998L6.53469 18.3473C6.22947 18.6024 6.03797 18.9681 6.00224 19.3643C5.96652 19.7604 6.08949 20.1545 6.34416 20.46C6.59883 20.7656 6.96436 20.9575 7.36045 20.9937C7.75655 21.0299 8.15081 20.9074 8.45664 20.6531L17.457 13.1527C17.6258 13.0117 17.7615 12.8353 17.8547 12.6361C17.9478 12.4369 17.9961 12.2197 17.9961 11.9998C17.9961 11.7799 17.9478 11.5626 17.8547 11.3634C17.7615 11.1642 17.6258 10.9879 17.457 10.8469Z" fill="#AD7CFE"/>
</svg>
