<svg width="14" height="14" viewBox="0 0 14 14" fill="none" xmlns="http://www.w3.org/2000/svg">
<path d="M7.33317 0.333328C6.01463 0.333328 4.7257 0.724321 3.62937 1.45686C2.53304 2.18941 1.67856 3.2306 1.17398 4.44877C0.669392 5.66695 0.53737 7.00739 0.794605 8.3006C1.05184 9.5938 1.68678 10.7817 2.61913 11.714C3.55148 12.6464 4.73937 13.2813 6.03257 13.5386C7.32578 13.7958 8.66622 13.6638 9.8844 13.1592C11.1026 12.6546 12.1438 11.8001 12.8763 10.7038C13.6088 9.60747 13.9998 8.31854 13.9998 7C13.9998 6.12452 13.8274 5.25761 13.4924 4.44877C13.1573 3.63993 12.6663 2.90501 12.0472 2.28595C11.4282 1.66689 10.6932 1.17583 9.8844 0.840798C9.07556 0.505767 8.20865 0.333328 7.33317 0.333328V0.333328ZM7.33317 12.3333C6.27834 12.3333 5.24719 12.0205 4.37013 11.4345C3.49307 10.8485 2.80948 10.0155 2.40582 9.04097C2.00215 8.06643 1.89653 6.99408 2.10232 5.95951C2.30811 4.92495 2.81606 3.97464 3.56194 3.22876C4.30782 2.48288 5.25813 1.97493 6.29269 1.76914C7.32726 1.56335 8.39961 1.66897 9.37415 2.07264C10.3487 2.4763 11.1816 3.15989 11.7677 4.03695C12.3537 4.91402 12.6665 5.94516 12.6665 7C12.6665 8.41448 12.1046 9.77104 11.1044 10.7712C10.1042 11.7714 8.74766 12.3333 7.33317 12.3333V12.3333ZM9.39984 7.42L7.99984 6.61333V3.66666C7.99984 3.48985 7.9296 3.32028 7.80458 3.19526C7.67955 3.07023 7.50998 2.99999 7.33317 2.99999C7.15636 2.99999 6.98679 3.07023 6.86177 3.19526C6.73675 3.32028 6.66651 3.48985 6.66651 3.66666V7C6.66651 7 6.66651 7.05333 6.66651 7.08C6.67045 7.12593 6.68171 7.17094 6.69984 7.21333C6.71357 7.25288 6.73145 7.29087 6.75317 7.32666C6.77142 7.36455 6.79377 7.40033 6.81984 7.43333L6.92651 7.51999L6.98651 7.58L8.71984 8.58C8.82144 8.63758 8.93639 8.66747 9.05317 8.66666C9.20079 8.66769 9.34456 8.61971 9.46197 8.53022C9.57937 8.44074 9.66375 8.31482 9.70188 8.17222C9.74001 8.02961 9.72973 7.87838 9.67265 7.74225C9.61558 7.60611 9.51494 7.49277 9.38651 7.42H9.39984Z" fill="#AD7CFE"/>
</svg>
