<svg width="25" height="25" viewBox="0 0 25 25" fill="none" xmlns="http://www.w3.org/2000/svg">
<path d="M22.8332 12.1C20.7291 7.41 16.7707 4.5 12.4999 4.5C8.22905 4.5 4.27072 7.41 2.16655 12.1C2.1092 12.2262 2.07959 12.3623 2.07959 12.5C2.07959 12.6377 2.1092 12.7738 2.16655 12.9C4.27072 17.59 8.22905 20.5 12.4999 20.5C16.7707 20.5 20.7291 17.59 22.8332 12.9C22.8906 12.7738 22.9202 12.6377 22.9202 12.5C22.9202 12.3623 22.8906 12.2262 22.8332 12.1ZM12.4999 18.5C9.18739 18.5 6.0728 16.21 4.27072 12.5C6.0728 8.79 9.18739 6.5 12.4999 6.5C15.8124 6.5 18.927 8.79 20.7291 12.5C18.927 16.21 15.8124 18.5 12.4999 18.5ZM12.4999 8.5C11.6758 8.5 10.8702 8.7346 10.185 9.17412C9.49981 9.61365 8.96575 10.2384 8.65039 10.9693C8.33502 11.7002 8.25251 12.5044 8.41328 13.2804C8.57405 14.0563 8.97089 14.769 9.55361 15.3284C10.1363 15.8878 10.8788 16.2688 11.687 16.4231C12.4953 16.5775 13.333 16.4983 14.0944 16.1955C14.8558 15.8928 15.5065 15.3801 15.9643 14.7223C16.4222 14.0645 16.6666 13.2911 16.6666 12.5C16.6666 11.4391 16.2276 10.4217 15.4462 9.67157C14.6648 8.92143 13.605 8.5 12.4999 8.5ZM12.4999 14.5C12.0878 14.5 11.6851 14.3827 11.3424 14.1629C10.9998 13.9432 10.7328 13.6308 10.5751 13.2654C10.4175 12.8999 10.3762 12.4978 10.4566 12.1098C10.537 11.7219 10.7354 11.3655 11.0267 11.0858C11.3181 10.8061 11.6893 10.6156 12.0934 10.5384C12.4976 10.4613 12.9165 10.5009 13.2971 10.6522C13.6778 10.8036 14.0032 11.06 14.2321 11.3889C14.461 11.7178 14.5832 12.1044 14.5832 12.5C14.5832 13.0304 14.3637 13.5391 13.973 13.9142C13.5823 14.2893 13.0524 14.5 12.4999 14.5Z" fill="#47385F"/>
<path d="M21.5978 3.76606C21.5107 3.68176 21.4071 3.61484 21.2929 3.56918C21.1788 3.52351 21.0563 3.5 20.9326 3.5C20.8089 3.5 20.6865 3.52351 20.5723 3.56918C20.4581 3.61484 20.3545 3.68176 20.2674 3.76606L3.40215 19.9567C3.31433 20.0403 3.24463 20.1398 3.19706 20.2494C3.14949 20.359 3.125 20.4766 3.125 20.5953C3.125 20.714 3.14949 20.8316 3.19706 20.9412C3.24463 21.0508 3.31433 21.1503 3.40215 21.2339C3.48925 21.3182 3.59288 21.3852 3.70706 21.4308C3.82123 21.4765 3.9437 21.5 4.06739 21.5C4.19108 21.5 4.31354 21.4765 4.42772 21.4308C4.5419 21.3852 4.64553 21.3182 4.73263 21.2339L21.5978 5.04332C21.6857 4.95971 21.7554 4.86022 21.8029 4.75061C21.8505 4.641 21.875 4.52344 21.875 4.40469C21.875 4.28595 21.8505 4.16839 21.8029 4.05878C21.7554 3.94917 21.6857 3.84968 21.5978 3.76606Z" fill="#47385F"/>
</svg>
